<?xml version="1.0" encoding="utf-8"?>
<!-- Generator: Adobe Illustrator 22.0.0, SVG Export Plug-In . SVG Version: 6.00 Build 0)  -->
<svg version="1.1" id="Capa_1" xmlns="http://www.w3.org/2000/svg" xmlns:xlink="http://www.w3.org/1999/xlink" x="0px" y="0px"
	 viewBox="0 0 308.2 466" style="enable-background:new 0 0 308.2 466;" xml:space="preserve">
<style type="text/css">
	.st0{fill:#769BC5;}
</style>
<g>
	<path class="st0" d="M269.3,253.1c8.4,2.1,22.1-1.1,22.1-1.1c-33.7-31.5-26.3-83-26.3-83c-5.2-103.1-26.3-130.5-26.3-130.5
		C214.6-12,130.4,1.7,130.4,1.7C52.6,13.3,54.7,92.2,54.7,92.2C52.6,189,0,202.6,0,202.6c13.7,12.6,53.6-2.1,53.6-2.1
		c-2.1,16.8-29.4,31.6-29.4,31.6c6.3,11.6,49.4,18.9,49.4,18.9c-65.2,5.3-69.4,74.7-69.4,74.7V466h304V337.3
		C308.2,285.7,269.3,253.1,269.3,253.1z M95.7,115.3c2.1,3.2,27.4,6.3,27.4,6.3l2.1-15.8l5.3,7.4l2.1-10.5l10.5,15.8
		c13.7,10.5,77.8-4.2,77.8-4.2c4.2,17.9-3.1,55.8-3.1,55.8c-7.2,5.2-23.7,8.8-35.2,10.8c-2.3-4-6.5-6.8-11.5-6.8
		c-7.3,0-13.2,5.9-13.2,13.1c0,7.3,5.9,13.2,13.2,13.2c5,0,9.4-2.8,11.5-7L204,191c-8.4,26.3-46.3,35.8-46.3,35.8
		C87.3,203.7,95.7,115.3,95.7,115.3z M123.4,225.4c20.3,16.8,35,18.2,35,18.2c13.3-0.7,35.1-15.5,35.1-15.5
		c0.7,5.6,30.1,22.5,30.1,22.5c-4.2,57.5-67.3,135.3-67.3,135.3c-29.5-12.6-68.8-139.5-68.8-139.5
		C98.2,245.7,123.4,225.4,123.4,225.4z"/>
</g>
</svg>
