<?xml version="1.0" encoding="utf-8"?>
<!-- Generator: Adobe Illustrator 22.0.0, SVG Export Plug-In . SVG Version: 6.00 Build 0)  -->
<svg version="1.1" id="Capa_1" xmlns="http://www.w3.org/2000/svg" xmlns:xlink="http://www.w3.org/1999/xlink" x="0px" y="0px"
	 viewBox="0 0 512 453.2" style="enable-background:new 0 0 512 453.2;" xml:space="preserve">
<style type="text/css">
	.st0{fill:#769BC5;}
</style>
<g>
	<path class="st0" d="M485.7,84.2l-69.7-31L196.2,156.6V223l-38.4-17.1v-66.4L377.7,36.1L303.8,3.3c-9.9-4.4-26.1-4.4-36,0L86,84.2
		c-14.5,6.4-26.3,24.7-26.3,40.5L60,244.6c11.4-3.7,23.5-5.7,36.1-5.7c65.2,0,118.3,53.1,118.3,118.3c0,17-3.7,33.2-10.2,47.8
		l64.2,27.5c9.6,4.1,25.2,4.1,34.8,0L484.7,355c14.7-6.3,26.8-24.6,26.9-40.6l0.4-189.6C512,108.9,500.2,90.7,485.7,84.2z
		 M415.5,221.8l24.6-52c2.5-5.2,8.7-8.3,11.2-5.4l25.3,28.8c2.5,2.9-0.7,9.4-5.7,11.8l-10.6,4.9l-0.2,74.9c0,3.3-2.9,7.2-6.4,8.7
		l-15.9,6.9c-3.5,1.5-6.3,0.1-6.3-3.1l-0.1-73.9l-10.4,4.8C416.1,230.4,413.1,226.9,415.5,221.8z M324.6,264.3l22.4-49.4
		c2.3-5,8-7.8,10.4-5l23.9,28c2.4,2.8-0.5,9-5.2,11.2l-9.9,4.6l0.6,71.7c0,3.1-2.6,6.8-5.9,8.2l-14.8,6.4c-3.2,1.4-5.9,0-5.9-3.1
		l-0.9-70.8l-9.6,4.4C325.3,272.6,322.4,269.1,324.6,264.3z M488.5,304.7c0,1.6-1.5,3.6-3.3,4.4L316.4,380c-1.6,0.7-2.9,0-2.9-1.5
		l-0.1-8.2c0-1.5,1.2-3.3,2.8-4l169.1-72c1.8-0.8,3.3-0.1,3.3,1.6L488.5,304.7z M96.1,261C43,261,0,304,0,357.1s43,96.1,96.1,96.1
		s96.1-43,96.1-96.1C192.3,304.1,149.2,261,96.1,261z M159,337.4L99.8,404c-2.9,3.3-7,5-11.1,5c-3.2,0-6.5-1.1-9.2-3.2l-37-29.6
		c-6.4-5.1-7.4-14.4-2.3-20.8s14.4-7.4,20.8-2.3l26,20.8l49.8-56.1c5.4-6.1,14.8-6.7,20.9-1.2C163.9,322,164.4,331.3,159,337.4z"/>
</g>
</svg>
