<?xml version="1.0" encoding="utf-8"?>
<!-- Generator: Adobe Illustrator 22.0.0, SVG Export Plug-In . SVG Version: 6.00 Build 0)  -->
<svg version="1.1" id="Capa_1" xmlns="http://www.w3.org/2000/svg" xmlns:xlink="http://www.w3.org/1999/xlink" x="0px" y="0px"
	 viewBox="0 0 512 383" style="enable-background:new 0 0 512 383;" xml:space="preserve">
<style type="text/css">
	.st0{fill:#769BC5;}
</style>
<g>
	<g>
		<g>
			<path class="st0" d="M509.5,91.5L321.2,1.6c-2.2-1-4.8-0.1-5.9,2.1l-41,85.8h22.3l30.1-63L490,104.3l-51,106.8l-28.8-13.7v56.5
				l17.7,8.5c2.2,1.1,4.8,0.1,5.9-2.1l77.8-162.9C512.6,95.2,511.7,92.5,509.5,91.5z"/>
		</g>
		<g>
			<path class="st0" d="M2.5,90.4L190.8,0.5c2.2-1.1,4.8-0.1,5.9,2l41,85.8h-22.3l-30.1-63L22,103.2L73,210l28.7-13.7v56.5L84,261.3
				c-2.2,1.1-4.8,0.1-5.9-2.1L0.4,96.3C-0.6,94.1,0.3,91.5,2.5,90.4z"/>
		</g>
		<g>
			<path class="st0" d="M392.4,104h-265c-3.1,0-5.6,2.5-5.6,5.6v267.8c0,3.1,2.5,5.6,5.6,5.6h265c3.1,0,5.6-2.5,5.6-5.6V109.6
				C398,106.5,395.5,104,392.4,104z M377.1,279.8H147.4V129.4h229.7L377.1,279.8L377.1,279.8z"/>
		</g>
	</g>
</g>
<g>
	<polygon class="st0" points="229.7,250.5 207.4,250.5 207.4,165.5 227.9,165.5 242.5,179.8 249.8,172.3 233.5,156 232.4,154.9 
		230.8,154.9 196.8,154.9 196.8,261.1 240.3,261.1 240.3,243 229.7,243 	"/>
	<polygon class="st0" points="275.2,154.9 275.2,173 285.8,173 285.8,165.5 304.6,165.5 304.6,250.5 279.2,250.5 233.7,205.3 
		226.4,212.5 273.9,261.1 315.2,261.1 315.2,154.9 	"/>
</g>
</svg>
