<svg version="1.1" id="Слой_1" xmlns="http://www.w3.org/2000/svg" xmlns:xlink="http://www.w3.org/1999/xlink" x="0px" y="0px" viewBox="0 0 576 368" style="enable-background:new 0 0 576 368;" xml:space="preserve">
<style type="text/css">
	.st0{fill:#A8ABB1;}
</style>
<path class="st0" d="M569.4,159.6C513,63.9,407.8,0,288,0C168.1,0,63,64,6.6,159.6c-8.9,15-8.9,33.7,0,48.7 C63,304.1,168.2,368,288,368c119.9,0,225-64,281.4-159.6C578.2,193.3,578.2,174.7,569.4,159.6L569.4,159.6z M288,320 c-102.6,0-192.1-54.7-240-136C92.2,109.1,171.7,56.7,264.2,49C274,59.1,280,72.8,280,88c0,30.9-25.1,56-56,56s-56-25.1-56-56l0,0 c-10.2,19.1-16,40.9-16,64c0,75.1,60.9,136,136,136s136-60.9,136-136c0-31-10.4-59.6-27.9-82.5C451.7,92.6,498,133.1,528,184 C480.1,265.3,390.6,320,288,320z"/>
</svg>