<svg version="1.1" id="Слой_1" xmlns="http://www.w3.org/2000/svg" xmlns:xlink="http://www.w3.org/1999/xlink" x="0px" y="0px" viewBox="0 0 17 17" style="enable-background:new 0 0 17 17;" xml:space="preserve">
<style type="text/css">
	.st0{fill:#565E70;stroke:#565E70;stroke-width:2;}
	.st1{clip-path:url(#SVGID_2_);fill:#FFFFFF;}
</style>
	<path class="st0" d="M4,1h9c1.7,0,3,1.3,3,3v9c0,1.7-1.3,3-3,3H4c-1.7,0-3-1.3-3-3V4C1,2.3,2.3,1,4,1z"/>
	<defs>
		<rect id="SVGID_1_" x="3.1" y="4.7" width="10.7" height="7.6"/>
	</defs>
	<clipPath id="SVGID_2_">
		<use xlink:href="#SVGID_1_"  style="overflow:visible;"/>
	</clipPath>
	<path class="st1" d="M13.7,5.3l-0.5-0.5c-0.2-0.2-0.5-0.2-0.7,0L7.2,10L4.5,7.3C4.3,7.1,4,7.1,3.8,7.3L3.3,7.8 C3.1,8,3.1,8.3,3.3,8.6l3.6,3.6c0.1,0.1,0.2,0.2,0.4,0.2c0.1,0,0.3-0.1,0.4-0.2l6.1-6.1C13.9,5.9,13.9,5.5,13.7,5.3L13.7,5.3z M13.7,5.3"/>
</svg>