<?xml version="1.0" encoding="utf-8"?>
<!-- Generator: Adobe Illustrator 21.1.0, SVG Export Plug-In . SVG Version: 6.00 Build 0)  -->
<svg version="1.1" xmlns="http://www.w3.org/2000/svg" xmlns:xlink="http://www.w3.org/1999/xlink" x="0px" y="0px"
	 viewBox="0 0 608.1 119.6" style="enable-background:new 0 0 608.1 119.6;" xml:space="preserve">
<style type="text/css">
	.st0{fill:#FFFFFF;}
</style>
<g id="Logo_1">
	<g>
		<polygon class="st0" points="45.3,106.3 20.9,106.3 20.9,13.3 43.4,13.3 59.1,29.1 67.2,21 49.3,3 48.1,1.9 46.5,1.9 9.5,1.9 
			9.5,117.7 56.7,117.7 56.7,98 45.3,98 		"/>
		<polygon class="st0" points="94.9,1.9 94.9,21.6 106.4,21.6 106.4,13.3 127,13.3 127,106.3 99.3,106.3 49.7,56.7 41.6,64.8 
			93.4,117.7 138.5,117.7 138.5,1.9 		"/>
	</g>
	<g>
		<g>
			<path class="st0" d="M208.6,73.7l-29.8-40.8v40.8h-13.3V11.1h13.7l29,39.3V11.1h13.3v62.6H208.6z"/>
		</g>
		<g>
			<path class="st0" d="M233.8,73.7V11.1h44.3v11.7h-31v13.2h30.3v11.7h-30.3V62h31v11.7H233.8z"/>
		</g>
		<g>
			<path class="st0" d="M336.3,73.7l-11-43l-10.9,43h-14.2l-17.9-62.6h14.9l11,45.2l11.9-45.2h10.4l11.8,45.2l10.9-45.2h15
				l-17.8,62.6H336.3z"/>
		</g>
		<g>
			<path class="st0" d="M374.6,73.7V11.1h44.3v11.7h-31v13.2h30.3v11.7h-30.3v25.9H374.6z"/>
		</g>
		<g>
			<path class="st0" d="M467.3,73.7l-3.8-10.6h-26.8l-3.9,10.6h-15.2l24.2-62.6h16.7l24.1,62.6H467.3z M450.1,24.4l-9.8,26.9h19.5
				L450.1,24.4z"/>
		</g>
		<g>
			<path class="st0" d="M482.1,42.4c0-19.2,14.5-32.4,33.3-32.4c13.8,0,21.8,7.5,26.2,15.3L530.2,31c-2.6-5.1-8.3-9.1-14.7-9.1
				c-11.4,0-19.6,8.7-19.6,20.5S504.1,63,515.5,63c6.5,0,12.1-3.9,14.7-9.1l11.4,5.5c-4.5,7.8-12.4,15.4-26.2,15.4
				C496.7,74.8,482.1,61.7,482.1,42.4z"/>
		</g>
		<g>
			<path class="st0" d="M549.6,73.7V11.1h44.3v11.7h-31v13.2h30.3v11.7h-30.3V62h31v11.7H549.6z"/>
		</g>
	</g>
</g>
<g id="Logo_2">
	<g>
		<path class="st0" d="M178.3,109.4c0-0.8-0.3-1.5-0.9-1.9s-1.6-0.9-3.1-1.4c-1.5-0.5-2.7-1-3.6-1.4c-2.4-1.3-3.6-3.1-3.6-5.3
			c0-1.1,0.3-2.2,1-3.1c0.6-0.9,1.6-1.6,2.8-2.1c1.2-0.5,2.6-0.8,4.1-0.8c1.5,0,2.9,0.3,4,0.8c1.2,0.5,2.1,1.3,2.8,2.3
			c0.7,1,1,2.1,1,3.4h-4.4c0-1-0.3-1.7-0.9-2.3c-0.6-0.5-1.5-0.8-2.6-0.8c-1.1,0-1.9,0.2-2.5,0.7c-0.6,0.5-0.9,1-0.9,1.8
			c0,0.7,0.3,1.3,1,1.7c0.7,0.5,1.7,0.9,3.1,1.3c2.5,0.7,4.3,1.7,5.4,2.8c1.1,1.1,1.7,2.5,1.7,4.1c0,1.8-0.7,3.3-2.1,4.3
			c-1.4,1-3.3,1.6-5.6,1.6c-1.6,0-3.1-0.3-4.5-0.9c-1.3-0.6-2.4-1.4-3.1-2.5c-0.7-1-1.1-2.2-1.1-3.6h4.4c0,2.3,1.4,3.5,4.2,3.5
			c1,0,1.8-0.2,2.4-0.6C178,110.7,178.3,110.1,178.3,109.4z"/>
		<path class="st0" d="M201.7,93.7v14c0,2.3-0.7,4.2-2.2,5.5c-1.5,1.3-3.4,2-5.9,2c-2.5,0-4.4-0.7-5.9-2c-1.5-1.3-2.2-3.1-2.2-5.4
			V93.7h4.4v14c0,1.4,0.3,2.4,1,3c0.7,0.6,1.6,1,2.8,1c2.5,0,3.7-1.3,3.7-3.9V93.7H201.7z"/>
		<path class="st0" d="M209.6,107.5v7.5h-4.4V93.7h8.3c1.6,0,3,0.3,4.2,0.9c1.2,0.6,2.1,1.4,2.8,2.5c0.6,1.1,1,2.3,1,3.7
			c0,2.1-0.7,3.7-2.1,4.9c-1.4,1.2-3.4,1.8-5.9,1.8H209.6z M209.6,103.9h3.9c1.2,0,2-0.3,2.6-0.8c0.6-0.5,0.9-1.3,0.9-2.3
			c0-1-0.3-1.9-0.9-2.5c-0.6-0.6-1.5-1-2.5-1h-4V103.9z"/>
		<path class="st0" d="M237.2,105.7h-8.4v5.7h9.8v3.5h-14.2V93.7h14.2v3.5h-9.8v5.1h8.4V105.7z"/>
		<path class="st0" d="M249.1,107.2h-3.5v7.8h-4.4V93.7h7.9c2.5,0,4.4,0.6,5.8,1.7c1.4,1.1,2,2.7,2,4.7c0,1.4-0.3,2.7-0.9,3.6
			c-0.6,1-1.6,1.7-2.8,2.3l4.6,8.7v0.2h-4.7L249.1,107.2z M245.6,103.6h3.5c1.1,0,1.9-0.3,2.5-0.8c0.6-0.6,0.9-1.3,0.9-2.3
			c0-1-0.3-1.8-0.9-2.4c-0.6-0.6-1.4-0.9-2.6-0.9h-3.5V103.6z"/>
		<path class="st0" d="M266,93.7l5.4,15.4l5.4-15.4h5.7v21.2h-4.4v-5.8l0.4-10l-5.7,15.8h-3l-5.7-15.8l0.4,10v5.8h-4.4V93.7H266z"/>
		<path class="st0" d="M298.6,110.6h-7.7l-1.5,4.4h-4.6l7.9-21.2h4l7.9,21.2h-4.6L298.6,110.6z M292.1,107h5.3l-2.7-7.9L292.1,107z"
			/>
		<path class="st0" d="M314.5,107.2h-3.5v7.8h-4.4V93.7h7.9c2.5,0,4.4,0.6,5.8,1.7c1.4,1.1,2,2.7,2,4.7c0,1.4-0.3,2.7-0.9,3.6
			c-0.6,1-1.6,1.7-2.8,2.3l4.6,8.7v0.2h-4.7L314.5,107.2z M311.1,103.6h3.5c1.1,0,1.9-0.3,2.5-0.8c0.6-0.6,0.9-1.3,0.9-2.3
			c0-1-0.3-1.8-0.9-2.4c-0.6-0.6-1.4-0.9-2.6-0.9h-3.5V103.6z"/>
		<path class="st0" d="M332.4,106.4l-2.3,2.4v6.1h-4.4V93.7h4.4v9.6l1.9-2.6l5.4-7h5.4l-7.5,9.4l7.7,11.8h-5.2L332.4,106.4z"/>
		<path class="st0" d="M357.4,105.7H349v5.7h9.8v3.5h-14.2V93.7h14.2v3.5H349v5.1h8.4V105.7z"/>
		<path class="st0" d="M377.7,97.3h-6.5v17.7h-4.4V97.3h-6.4v-3.5h17.3V97.3z"/>
		<path class="st0" d="M393.3,106.4l-2.3,2.4v6.1h-4.4V93.7h4.4v9.6l1.9-2.6l5.4-7h5.4l-7.5,9.4l7.7,11.8h-5.2L393.3,106.4z"/>
		<path class="st0" d="M422.6,104.8c0,2.1-0.4,3.9-1.1,5.5c-0.7,1.6-1.8,2.8-3.2,3.6c-1.4,0.9-2.9,1.3-4.7,1.3
			c-1.8,0-3.3-0.4-4.7-1.3c-1.4-0.8-2.4-2-3.2-3.6c-0.8-1.6-1.1-3.4-1.1-5.4v-1c0-2.1,0.4-3.9,1.1-5.5c0.8-1.6,1.8-2.8,3.2-3.7
			c1.4-0.8,2.9-1.3,4.7-1.3c1.8,0,3.3,0.4,4.7,1.3c1.4,0.8,2.4,2.1,3.2,3.7c0.8,1.6,1.1,3.4,1.1,5.5V104.8z M418.1,103.9
			c0-2.2-0.4-3.9-1.2-5.1c-0.8-1.2-1.9-1.7-3.4-1.7c-1.5,0-2.6,0.6-3.4,1.7c-0.8,1.1-1.2,2.8-1.2,5v1c0,2.2,0.4,3.8,1.2,5
			c0.8,1.2,1.9,1.8,3.4,1.8c1.5,0,2.6-0.6,3.4-1.7c0.8-1.1,1.2-2.8,1.2-5V103.9z"/>
		<path class="st0" d="M436.7,109.4c0-0.8-0.3-1.5-0.9-1.9c-0.6-0.4-1.6-0.9-3.1-1.4s-2.7-1-3.6-1.4c-2.4-1.3-3.6-3.1-3.6-5.3
			c0-1.1,0.3-2.2,1-3.1c0.6-0.9,1.6-1.6,2.8-2.1c1.2-0.5,2.6-0.8,4.1-0.8c1.5,0,2.9,0.3,4,0.8c1.2,0.5,2.1,1.3,2.8,2.3
			c0.7,1,1,2.1,1,3.4h-4.4c0-1-0.3-1.7-0.9-2.3s-1.5-0.8-2.6-0.8c-1.1,0-1.9,0.2-2.5,0.7c-0.6,0.5-0.9,1-0.9,1.8
			c0,0.7,0.3,1.3,1,1.7c0.7,0.5,1.7,0.9,3.1,1.3c2.5,0.7,4.3,1.7,5.4,2.8c1.1,1.1,1.7,2.5,1.7,4.1c0,1.8-0.7,3.3-2.1,4.3
			c-1.4,1-3.3,1.6-5.6,1.6c-1.6,0-3.1-0.3-4.5-0.9c-1.3-0.6-2.4-1.4-3.1-2.5c-0.7-1-1.1-2.2-1.1-3.6h4.4c0,2.3,1.4,3.5,4.2,3.5
			c1,0,1.8-0.2,2.4-0.6C436.4,110.7,436.7,110.1,436.7,109.4z"/>
		<path class="st0" d="M449.8,93.7l5.4,15.4l5.4-15.4h5.7v21.2H462v-5.8l0.4-10l-5.7,15.8h-3L448,99.2l0.4,10v5.8h-4.4V93.7H449.8z"
			/>
		<path class="st0" d="M482.9,105.7h-8.4v5.7h9.8v3.5h-14.2V93.7h14.2v3.5h-9.8v5.1h8.4V105.7z"/>
		<path class="st0" d="M503.2,97.3h-6.5v17.7h-4.4V97.3h-6.4v-3.5h17.3V97.3z"/>
		<path class="st0" d="M513.2,103.3l4.4-9.5h4.8l-7,13.5v7.7H511v-7.7l-7-13.5h4.8L513.2,103.3z"/>
		<path class="st0" d="M540.6,107.9c-0.2,2.3-1,4.1-2.5,5.4c-1.5,1.3-3.5,2-6,2c-2.7,0-4.9-0.9-6.4-2.7c-1.6-1.8-2.3-4.3-2.3-7.5
			v-1.3c0-2,0.4-3.8,1.1-5.4c0.7-1.6,1.7-2.7,3.1-3.6s2.9-1.2,4.7-1.2c2.4,0,4.4,0.7,5.9,2c1.5,1.3,2.4,3.1,2.6,5.5h-4.4
			c-0.1-1.4-0.5-2.4-1.1-3c-0.7-0.6-1.7-0.9-3-0.9c-1.5,0-2.5,0.5-3.3,1.6c-0.7,1-1.1,2.7-1.1,4.9v1.6c0,2.3,0.3,4,1,5
			c0.7,1.1,1.8,1.6,3.3,1.6c1.3,0,2.4-0.3,3-0.9c0.7-0.6,1-1.6,1.1-2.9H540.6z"/>
		<path class="st0" d="M548,111.4h10.7v3.5h-16.1v-2.6l10.5-15.1h-10.5v-3.5h15.9v2.5L548,111.4z"/>
		<path class="st0" d="M578.7,114.9h-4.4l-8.5-13.9v13.9h-4.4V93.7h4.4l8.5,14v-14h4.4V114.9z"/>
		<path class="st0" d="M589.4,103.3l4.4-9.5h4.8l-7,13.5v7.7h-4.4v-7.7l-7-13.5h4.8L589.4,103.3z"/>
	</g>
</g>
</svg>
