<?xml version="1.0" encoding="utf-8"?>
<!-- Generator: Adobe Illustrator 21.1.0, SVG Export Plug-In . SVG Version: 6.00 Build 0)  -->
<svg version="1.1" xmlns="http://www.w3.org/2000/svg" xmlns:xlink="http://www.w3.org/1999/xlink" x="0px" y="0px"
	 viewBox="0 0 608.1 119.6" style="enable-background:new 0 0 608.1 119.6;" xml:space="preserve">
<style type="text/css">
	.st0{fill:#565E70;}
	.st1{display:none;}
	.st2{display:inline;}
	.st3{fill:#2C3E50;}
</style>
<g id="Logo_1">
	<g>
		<polygon class="st0" points="37,107.8 11.8,107.8 11.8,11.8 35,11.8 51.3,28.1 59.6,19.7 41.1,1.2 39.9,0 38.2,0 0,0 0,119.6 
			48.8,119.6 48.8,99.3 37,99.3 		"/>
		<polygon class="st0" points="88.2,0 88.2,20.3 100,20.3 100,11.8 121.4,11.8 121.4,107.8 92.7,107.8 41.5,56.6 33.2,64.9 
			86.6,119.6 133.2,119.6 133.2,0 		"/>
	</g>
	<g class="st1">
		<g class="st2">
			<path class="st3" d="M161,109.9V91h13.3v3.5H165v4h9.1v3.5H165v7.8H161z"/>
		</g>
		<g class="st2">
			<path class="st3" d="M188.9,109.9l-1.2-3.2h-8.1l-1.2,3.2h-4.6l7.3-18.9h5l7.3,18.9H188.9z M183.7,95.1l-2.9,8.1h5.9L183.7,95.1z
				"/>
		</g>
		<g class="st2">
			<path class="st3" d="M193.4,100.5c0-5.8,4.4-9.8,10-9.8c4.2,0,6.6,2.3,7.9,4.6l-3.4,1.7c-0.8-1.5-2.5-2.7-4.4-2.7
				c-3.4,0-5.9,2.6-5.9,6.2c0,3.6,2.5,6.2,5.9,6.2c2,0,3.6-1.2,4.4-2.7l3.4,1.7c-1.4,2.3-3.7,4.6-7.9,4.6
				C197.7,110.2,193.4,106.3,193.4,100.5z"/>
		</g>
		<g class="st2">
			<path class="st3" d="M226.6,109.9V102h-8.9v7.9h-4V91h4v7.4h8.9V91h4v18.9H226.6z"/>
		</g>
		<g class="st2">
			<path class="st3" d="M233.5,100.5c0-5.7,4.2-9.8,9.8-9.8c5.7,0,9.9,4.1,9.9,9.8c0,5.7-4.2,9.8-9.9,9.8
				C237.6,110.2,233.5,106.2,233.5,100.5z M249,100.5c0-3.5-2.3-6.2-5.7-6.2c-3.5,0-5.7,2.7-5.7,6.2c0,3.5,2.2,6.2,5.7,6.2
				C246.8,106.7,249,104,249,100.5z"/>
		</g>
		<g class="st2">
			<path class="st3" d="M269.9,109.9l-3.3-12.9l-3.3,12.9H259L253.6,91h4.5l3.3,13.6L265,91h3.1l3.6,13.6L275,91h4.5l-5.4,18.9
				H269.9z"/>
		</g>
		<g class="st2">
			<path class="st3" d="M286.7,109.9v-7.7L279.4,91h4.6l4.7,7.6l4.6-7.6h4.6l-7.2,11.1v7.7H286.7z"/>
		</g>
		<g class="st2">
			<path class="st3" d="M305.6,107.2l2.2-3.1c1.3,1.4,3.4,2.5,6,2.5c2.2,0,3.3-1,3.3-2.1c0-3.3-10.9-1-10.9-8.1
				c0-3.1,2.7-5.7,7.2-5.7c3,0,5.5,0.9,7.4,2.6l-2.2,2.9c-1.5-1.4-3.6-2.1-5.5-2.1c-1.7,0-2.7,0.8-2.7,1.9c0,3,10.8,1,10.8,8
				c0,3.4-2.5,6.1-7.5,6.1C310,110.2,307.4,109,305.6,107.2z"/>
		</g>
		<g class="st2">
			<path class="st3" d="M323.8,109.9V91h8.8c4.1,0,6.3,2.8,6.3,6.1c0,3.3-2.3,6.1-6.3,6.1h-4.8v6.7H323.8z M334.9,97.1
				c0-1.6-1.2-2.5-2.8-2.5h-4.3v5.1h4.3C333.7,99.7,334.9,98.7,334.9,97.1z"/>
		</g>
		<g class="st2">
			<path class="st3" d="M352.1,109.9l-3.7-6.7h-2.9v6.7h-4V91h8.8c3.9,0,6.3,2.6,6.3,6.1c0,3.3-2.1,5.1-4.1,5.6l4.2,7.2H352.1z
				 M352.5,97.1c0-1.6-1.2-2.5-2.8-2.5h-4.2v5.1h4.2C351.3,99.7,352.5,98.7,352.5,97.1z"/>
		</g>
		<g class="st2">
			<path class="st3" d="M359,109.9v-3.3l8.9-12.1H359V91h14.2v3.2l-8.9,12.1h9.1v3.5H359z"/>
		</g>
		<g class="st2">
			<path class="st3" d="M387.8,112.4c0,0.9,0.5,1.2,1,1.2c0.6,0,1-0.4,1.2-1l1.4,0.9c-0.5,0.9-1.4,1.6-2.7,1.6
				c-1.5,0-2.8-0.7-2.8-2.5c0-1,0.5-2,1.3-2.7h-10.9V91h13.3v3.5h-9.3v4h9.1v3.5h-9.1v4.3h9.3v3.5
				C388.4,110.6,387.8,111.5,387.8,112.4z"/>
		</g>
		<g class="st2">
			<path class="st3" d="M397.2,109.9V94.6h-5.5V91h15v3.5h-5.5v15.3H397.2z"/>
		</g>
		<g class="st2">
			<path class="st3" d="M416.6,109.9V91h7.4c5.9,0,10,3.8,10,9.4c0,5.7-4.1,9.4-10,9.4H416.6z M429.9,100.5c0-3.3-2-5.9-5.9-5.9
				h-3.4v11.8h3.4C427.8,106.4,429.9,103.7,429.9,100.5z"/>
		</g>
		<g class="st2">
			<path class="st3" d="M436,100.5c0-5.7,4.2-9.8,9.8-9.8c5.7,0,9.9,4.1,9.9,9.8c0,5.7-4.2,9.8-9.9,9.8
				C440.1,110.2,436,106.2,436,100.5z M451.6,100.5c0-3.5-2.3-6.2-5.7-6.2s-5.7,2.7-5.7,6.2c0,3.5,2.2,6.2,5.7,6.2
				S451.6,104,451.6,100.5z"/>
		</g>
		<g class="st2">
			<path class="st3" d="M464.5,107.2l2.2-3.1c1.3,1.4,3.4,2.5,6,2.5c2.2,0,3.3-1,3.3-2.1c0-3.3-10.9-1-10.9-8.1
				c0-3.1,2.7-5.7,7.2-5.7c3,0,5.5,0.9,7.4,2.6l-2.2,2.9c-1.5-1.4-3.6-2.1-5.5-2.1c-1.7,0-2.7,0.8-2.7,1.9c0,3,10.8,1,10.8,8
				c0,3.4-2.5,6.1-7.5,6.1C468.9,110.2,466.3,109,464.5,107.2z"/>
		</g>
		<g class="st2">
			<path class="st3" d="M495.5,109.9l-1.2-3.2h-8.1l-1.2,3.2h-4.6l7.3-18.9h5l7.3,18.9H495.5z M490.3,95.1l-2.9,8.1h5.9L490.3,95.1z
				"/>
		</g>
		<g class="st2">
			<path class="st3" d="M501.8,109.9V91h4v15.3h8v3.5H501.8z"/>
		</g>
		<g class="st2">
			<path class="st3" d="M514.9,100.5c0-5.7,4.2-9.8,9.8-9.8c5.7,0,9.9,4.1,9.9,9.8c0,5.7-4.2,9.8-9.9,9.8
				C519.1,110.2,514.9,106.2,514.9,100.5z M530.5,100.5c0-3.5-2.3-6.2-5.7-6.2c-3.5,0-5.7,2.7-5.7,6.2c0,3.5,2.2,6.2,5.7,6.2
				C528.2,106.7,530.5,104,530.5,100.5z"/>
		</g>
		<g class="st2">
			<path class="st3" d="M550.5,109.9l-9-12.3v12.3h-4V91h4.1l8.7,11.8V91h4v18.9H550.5z"/>
		</g>
		<g class="st2">
			<path class="st3" d="M557.2,100.5c0-5.7,4.2-9.8,9.8-9.8c5.7,0,9.9,4.1,9.9,9.8c0,5.7-4.2,9.8-9.9,9.8
				C561.3,110.2,557.2,106.2,557.2,100.5z M572.7,100.5c0-3.5-2.3-6.2-5.7-6.2c-3.5,0-5.7,2.7-5.7,6.2c0,3.5,2.2,6.2,5.7,6.2
				C570.5,106.7,572.7,104,572.7,100.5z M567.7,89.5h-2.5l3.8-4.1h3.3L567.7,89.5z"/>
		</g>
		<g class="st2">
			<path class="st3" d="M593.6,109.9l-3.3-12.9l-3.3,12.9h-4.3L577.3,91h4.5l3.3,13.6l3.6-13.6h3.1l3.6,13.6l3.3-13.6h4.5l-5.4,18.9
				H593.6z"/>
		</g>
	</g>
	<g>
		<g>
			<path class="st0" d="M205.5,74.1L174.7,32v42.1H161V9.5h14.1L205,50.1V9.5h13.8v64.6H205.5z"/>
		</g>
		<g>
			<path class="st0" d="M231.5,74.1V9.5h45.7v12.1h-32v13.7h31.3v12.1h-31.3V62h32v12.1H231.5z"/>
		</g>
		<g>
			<path class="st0" d="M337.4,74.1l-11.3-44.3l-11.2,44.3h-14.6L281.7,9.5h15.4l11.3,46.7l12.3-46.7h10.7l12.2,46.7l11.2-46.7h15.5
				L352,74.1H337.4z"/>
		</g>
		<g>
			<path class="st0" d="M376.9,74.1V9.5h45.7v12.1h-32v13.7h31.3v12.1h-31.3v26.7H376.9z"/>
		</g>
		<g>
			<path class="st0" d="M472.6,74.1l-4-10.9h-27.7l-4.1,10.9h-15.7l25-64.6h17.2l24.9,64.6H472.6z M454.8,23.3l-10.1,27.8h20.1
				L454.8,23.3z"/>
		</g>
		<g>
			<path class="st0" d="M487.9,41.9c0-19.9,15-33.4,34.4-33.4c14.2,0,22.5,7.7,27,15.8l-11.8,5.8c-2.7-5.2-8.5-9.4-15.2-9.4
				c-11.7,0-20.2,9-20.2,21.2s8.5,21.2,20.2,21.2c6.7,0,12.5-4.1,15.2-9.4l11.8,5.7c-4.6,8-12.8,15.9-27,15.9
				C502.9,75.3,487.9,61.7,487.9,41.9z"/>
		</g>
		<g>
			<path class="st0" d="M557.5,74.1V9.5h45.7v12.1h-32v13.7h31.3v12.1h-31.3V62h32v12.1H557.5z"/>
		</g>
	</g>
</g>
<g id="Logo_2">
	<g>
		<path class="st0" d="M174.2,111c0-0.9-0.3-1.5-0.9-2s-1.7-0.9-3.2-1.4c-1.6-0.5-2.8-1-3.7-1.5c-2.5-1.3-3.7-3.1-3.7-5.4
			c0-1.2,0.3-2.2,1-3.2c0.7-0.9,1.6-1.7,2.9-2.2c1.2-0.5,2.6-0.8,4.2-0.8c1.6,0,3,0.3,4.2,0.8c1.2,0.6,2.2,1.4,2.8,2.4
			c0.7,1,1,2.2,1,3.5h-4.5c0-1-0.3-1.8-0.9-2.3c-0.6-0.6-1.5-0.8-2.7-0.8c-1.1,0-2,0.2-2.6,0.7c-0.6,0.5-0.9,1.1-0.9,1.8
			c0,0.7,0.4,1.3,1.1,1.8c0.7,0.5,1.8,0.9,3.2,1.4c2.6,0.8,4.4,1.7,5.6,2.9c1.2,1.1,1.8,2.6,1.8,4.3c0,1.9-0.7,3.4-2.1,4.5
			c-1.4,1.1-3.4,1.6-5.8,1.6c-1.7,0-3.2-0.3-4.6-0.9c-1.4-0.6-2.4-1.5-3.2-2.5c-0.7-1.1-1.1-2.3-1.1-3.7h4.5c0,2.4,1.4,3.6,4.3,3.6
			c1.1,0,1.9-0.2,2.5-0.7C173.9,112.4,174.2,111.7,174.2,111z"/>
		<path class="st0" d="M198.4,94.8v14.4c0,2.4-0.7,4.3-2.2,5.7c-1.5,1.4-3.5,2.1-6.1,2.1c-2.6,0-4.6-0.7-6.1-2
			c-1.5-1.4-2.3-3.2-2.3-5.6V94.8h4.5v14.4c0,1.4,0.3,2.5,1,3.1c0.7,0.7,1.6,1,2.8,1c2.5,0,3.8-1.3,3.9-4V94.8H198.4z"/>
		<path class="st0" d="M206.6,109v7.7h-4.5V94.8h8.5c1.6,0,3.1,0.3,4.3,0.9c1.2,0.6,2.2,1.5,2.9,2.6c0.7,1.1,1,2.4,1,3.8
			c0,2.1-0.7,3.8-2.2,5.1c-1.5,1.2-3.5,1.9-6.1,1.9H206.6z M206.6,105.3h4c1.2,0,2.1-0.3,2.7-0.8c0.6-0.6,0.9-1.4,0.9-2.4
			c0-1.1-0.3-1.9-0.9-2.6c-0.6-0.7-1.5-1-2.6-1h-4.1V105.3z"/>
		<path class="st0" d="M235.1,107.2h-8.7v5.9h10.2v3.6h-14.7V94.8h14.6v3.7h-10.1v5.2h8.7V107.2z"/>
		<path class="st0" d="M247.3,108.7h-3.6v8h-4.5V94.8h8.1c2.6,0,4.6,0.6,6,1.7c1.4,1.2,2.1,2.8,2.1,4.9c0,1.5-0.3,2.7-1,3.7
			c-0.6,1-1.6,1.8-2.9,2.4l4.7,8.9v0.2h-4.8L247.3,108.7z M243.7,105h3.6c1.1,0,2-0.3,2.6-0.9s0.9-1.4,0.9-2.4c0-1-0.3-1.8-0.9-2.4
			s-1.5-0.9-2.7-0.9h-3.6V105z"/>
		<path class="st0" d="M264.7,94.8l5.6,15.9l5.6-15.9h5.9v21.9h-4.5v-6l0.5-10.3l-5.9,16.3h-3.1l-5.9-16.3l0.5,10.3v6h-4.5V94.8
			H264.7z"/>
		<path class="st0" d="M298.4,112.2h-7.9l-1.5,4.5h-4.8l8.1-21.9h4.2l8.2,21.9h-4.8L298.4,112.2z M291.7,108.5h5.5l-2.7-8.2
			L291.7,108.5z"/>
		<path class="st0" d="M314.9,108.7h-3.6v8h-4.5V94.8h8.1c2.6,0,4.6,0.6,6,1.7c1.4,1.2,2.1,2.8,2.1,4.9c0,1.5-0.3,2.7-1,3.7
			c-0.6,1-1.6,1.8-2.9,2.4l4.7,8.9v0.2H319L314.9,108.7z M311.3,105h3.6c1.1,0,2-0.3,2.6-0.9s0.9-1.4,0.9-2.4c0-1-0.3-1.8-0.9-2.4
			s-1.5-0.9-2.7-0.9h-3.6V105z"/>
		<path class="st0" d="M333.3,107.9l-2.3,2.5v6.2h-4.5V94.8h4.5v9.9l2-2.7l5.6-7.2h5.5l-7.8,9.7l8,12.2h-5.4L333.3,107.9z"/>
		<path class="st0" d="M359.1,107.2h-8.7v5.9h10.2v3.6h-14.7V94.8h14.6v3.7h-10.1v5.2h8.7V107.2z"/>
		<path class="st0" d="M380,98.5h-6.7v18.2h-4.5V98.5h-6.6v-3.7H380V98.5z"/>
		<path class="st0" d="M396.2,107.9l-2.3,2.5v6.2h-4.5V94.8h4.5v9.9l2-2.7l5.6-7.2h5.5l-7.8,9.7l8,12.2h-5.4L396.2,107.9z"/>
		<path class="st0" d="M426.4,106.3c0,2.2-0.4,4-1.1,5.7c-0.8,1.6-1.9,2.9-3.3,3.8c-1.4,0.9-3,1.3-4.9,1.3c-1.8,0-3.4-0.4-4.9-1.3
			c-1.4-0.9-2.5-2.1-3.3-3.7c-0.8-1.6-1.2-3.5-1.2-5.6v-1.1c0-2.2,0.4-4,1.2-5.7s1.9-2.9,3.3-3.8c1.4-0.9,3-1.3,4.9-1.3
			c1.8,0,3.4,0.4,4.9,1.3c1.4,0.9,2.5,2.1,3.3,3.8c0.8,1.6,1.2,3.5,1.2,5.7V106.3z M421.8,105.3c0-2.3-0.4-4-1.2-5.2
			c-0.8-1.2-2-1.8-3.5-1.8c-1.5,0-2.7,0.6-3.5,1.8c-0.8,1.2-1.2,2.9-1.2,5.2v1.1c0,2.2,0.4,4,1.2,5.2c0.8,1.2,2,1.8,3.5,1.8
			c1.5,0,2.7-0.6,3.5-1.8c0.8-1.2,1.2-2.9,1.2-5.2V105.3z"/>
		<path class="st0" d="M441,111c0-0.9-0.3-1.5-0.9-2c-0.6-0.5-1.7-0.9-3.2-1.4s-2.8-1-3.7-1.5c-2.5-1.3-3.7-3.1-3.7-5.4
			c0-1.2,0.3-2.2,1-3.2c0.7-0.9,1.6-1.7,2.9-2.2c1.2-0.5,2.6-0.8,4.2-0.8c1.6,0,3,0.3,4.2,0.8c1.2,0.6,2.2,1.4,2.8,2.4
			c0.7,1,1,2.2,1,3.5H441c0-1-0.3-1.8-0.9-2.3s-1.5-0.8-2.7-0.8c-1.1,0-2,0.2-2.6,0.7c-0.6,0.5-0.9,1.1-0.9,1.8
			c0,0.7,0.4,1.3,1.1,1.8c0.7,0.5,1.8,0.9,3.2,1.4c2.6,0.8,4.4,1.7,5.6,2.9s1.8,2.6,1.8,4.3c0,1.9-0.7,3.4-2.1,4.5
			c-1.4,1.1-3.4,1.6-5.8,1.6c-1.7,0-3.2-0.3-4.6-0.9c-1.4-0.6-2.4-1.5-3.2-2.5c-0.7-1.1-1.1-2.3-1.1-3.7h4.5c0,2.4,1.4,3.6,4.3,3.6
			c1.1,0,1.9-0.2,2.5-0.7C440.7,112.4,441,111.7,441,111z"/>
		<path class="st0" d="M454.5,94.8l5.6,15.9l5.6-15.9h5.9v21.9h-4.5v-6l0.5-10.3l-5.9,16.3h-3.1l-5.9-16.3l0.5,10.3v6h-4.5V94.8
			H454.5z"/>
		<path class="st0" d="M488.7,107.2H480v5.9h10.2v3.6h-14.7V94.8h14.6v3.7H480v5.2h8.7V107.2z"/>
		<path class="st0" d="M509.6,98.5h-6.7v18.2h-4.5V98.5h-6.6v-3.7h17.8V98.5z"/>
		<path class="st0" d="M519.9,104.7l4.6-9.9h4.9l-7.2,13.9v7.9h-4.6v-7.9l-7.2-13.9h4.9L519.9,104.7z"/>
		<path class="st0" d="M548.2,109.4c-0.2,2.4-1,4.2-2.6,5.6c-1.6,1.4-3.6,2-6.2,2c-2.8,0-5-0.9-6.6-2.8s-2.4-4.5-2.4-7.8v-1.3
			c0-2.1,0.4-4,1.1-5.6s1.8-2.8,3.2-3.7s3-1.3,4.8-1.3c2.5,0,4.6,0.7,6.1,2c1.5,1.4,2.4,3.3,2.7,5.7h-4.5c-0.1-1.4-0.5-2.4-1.2-3.1
			c-0.7-0.6-1.7-1-3.1-1c-1.5,0-2.6,0.5-3.4,1.6c-0.7,1.1-1.1,2.7-1.1,5v1.7c0,2.4,0.4,4.1,1.1,5.2c0.7,1.1,1.8,1.6,3.4,1.6
			c1.4,0,2.4-0.3,3.1-1c0.7-0.6,1.1-1.6,1.2-3H548.2z"/>
		<path class="st0" d="M555.9,113.1h11v3.6h-16.7v-2.6l10.8-15.6h-10.8v-3.7h16.4v2.6L555.9,113.1z"/>
		<path class="st0" d="M587.5,116.7H583l-8.8-14.4v14.4h-4.5V94.8h4.5l8.8,14.4V94.8h4.5V116.7z"/>
		<path class="st0" d="M598.6,104.7l4.6-9.9h4.9l-7.2,13.9v7.9h-4.6v-7.9l-7.2-13.9h4.9L598.6,104.7z"/>
	</g>
</g>
</svg>
