<svg version="1.1" id="Слой_1" xmlns="http://www.w3.org/2000/svg" xmlns:xlink="http://www.w3.org/1999/xlink" x="0px" y="0px" viewBox="0 0 10.7 8" style="enable-background:new 0 0 10.7 8;" xml:space="preserve">
<style type="text/css">
	.st0{opacity:0.5;}
	.st1{fill:#505E70;}
</style>
	<path class="st1" d="M10.5,1.1L5.7,4.5c-0.2,0.2-0.5,0.2-0.8,0L0,1c0,0.1,0,0.2,0,0.3v5.3C0,7.4,0.6,8,1.3,8h8 c0.7,0,1.3-0.6,1.3-1.3V1.3c0-0.1,0-0.1,0-0.2C10.6,1.1,10.6,1.1,10.5,1.1L10.5,1.1z"/>
	<path class="st1" d="M5.3,3.2l3.8-2.7C8.9,0.3,8.7,0.2,8.5,0H1.3C1.2,0,1.1,0,1,0.1L5.3,3.2z"/>
</svg>