<?xml version="1.0" standalone="no"?>
<!DOCTYPE svg PUBLIC "-//W3C//DTD SVG 1.1//EN" "http://www.w3.org/Graphics/SVG/1.1/DTD/svg11.dtd" >
<svg xmlns="http://www.w3.org/2000/svg">
<metadata>Generated by IcoMoon</metadata>
<defs>
<font id="icomoon" horiz-adv-x="1024">
<font-face units-per-em="1024" ascent="960" descent="-64" />
<missing-glyph horiz-adv-x="1024" />
<glyph unicode="&#x20;" horiz-adv-x="512" d="" />
<glyph unicode="&#xe900;" glyph-name="award59" d="M839.628 24.178l-120.501 342.109c-12.412-3.879-25.6-6.723-39.046-6.723-7.758 0-15.515 0.776-23.014 2.069-9.051-28.186-26.893-51.976-50.941-68.267l-55.079-156.186 67.232-191.095c1.81-5.172 6.723-8.533 12.154-8.533s10.343 3.362 12.154 8.533l45.511 124.897c1.293 3.62 4.137 6.465 7.758 7.758s7.758 0.776 10.861-1.034l113.778-68.784c4.655-2.844 10.602-2.327 14.739 1.034 4.396 3.362 6.206 9.051 4.396 14.222v0zM362.537 297.762c-21.98 0-43.96 5.689-63.354 16.291-1.81 1.034-3.362 2.327-5.172 3.362l-75.248-213.333c-1.81-5.172-0.259-10.861 4.137-14.222 2.327-1.81 5.172-2.844 8.016-2.844 2.327 0 4.655 0.517 6.723 1.81l113.778 68.784c2.069 1.293 4.396 1.81 6.723 1.81 1.552 0 2.844-0.259 4.137-0.776 3.62-1.293 6.465-4.137 7.758-7.758l45.511-124.897c1.81-5.172 6.723-8.533 12.154-8.533v0c5.43 0 10.343 3.362 12.154 8.533l86.368 245.398c-36.719 1.81-70.853 18.36-94.125 46.287-20.687-12.929-44.735-19.911-69.56-19.911v0zM754.036 713.309c-13.705 4.137-24.824 14.481-29.737 27.669-5.172 13.446-3.879 28.186 3.62 40.598v0c13.964 23.273 11.378 53.010-6.465 73.438-12.154 13.964-29.479 21.463-47.321 21.463-8.275 0-16.808-1.552-24.566-5.172-5.947-2.586-12.154-3.62-18.36-3.62-7.758 0-15.515 2.069-22.497 5.689-12.412 6.982-21.204 19.135-23.273 33.358v0c-4.137 26.893-25.341 48.097-52.234 52.234-3.103 0.776-6.465 1.034-9.826 1.034-23.273 0-45.253-13.188-55.855-34.392-6.465-12.671-18.36-21.721-32.582-24.566-2.844-0.517-5.947-0.776-8.792-0.776-11.119 0-21.98 3.879-30.513 11.378-11.636 10.085-26.376 15.515-41.374 15.515-11.119 0-22.238-2.844-32.323-9.051-23.273-13.964-34.909-41.632-28.703-68.008 3.362-13.964 0-28.444-9.051-39.564-8.792-10.861-21.98-17.067-35.943-17.067h-0.776c-0.517 0-0.776 0-1.293 0-26.634 0-50.683-17.067-59.216-42.408-8.792-25.6 0-54.303 21.721-70.594v0c11.378-8.533 18.36-21.98 18.618-36.202s-5.947-27.927-17.325-36.978c-21.204-17.067-28.962-45.77-19.135-71.37 9.309-24.307 32.582-40.081 58.44-40.081 1.034 0 2.327 0 3.62 0 0.776 0 1.81 0 2.586 0 13.446 0 26.117-5.689 34.909-16.032 9.309-10.861 13.188-26.117 10.343-40.081-5.172-26.634 7.499-53.010 31.289-66.198 9.568-5.172 19.911-7.758 30.255-7.758 15.515 0 31.030 5.689 42.925 17.067 8.792 8.016 19.911 12.412 31.806 12.412 2.327 0 4.913-0.259 7.24-0.517 14.222-2.327 26.376-10.861 33.358-23.273v0c11.119-20.17 32.323-32.323 54.82-32.323 3.879 0 8.016 0.259 11.895 1.034 26.634 5.172 47.063 27.152 50.166 54.044 1.552 14.222 9.826 26.893 21.98 34.133 7.24 4.396 15.515 6.723 24.048 6.723 5.689 0 11.378-1.034 16.549-3.103v0c7.24-2.844 14.998-4.137 22.497-4.137 18.618 0 36.719 8.275 48.873 23.273 17.067 21.204 18.618 50.941 3.62 73.697-7.758 11.895-9.826 26.893-5.172 40.339s15.257 24.048 28.703 28.703c25.859 8.792 42.925 33.358 42.408 60.509 0.259 27.41-17.842 50.941-43.96 58.958v0zM491.313 458.602c-105.244 0-190.836 85.592-190.836 190.836s85.592 190.836 190.836 190.836 190.836-85.592 190.836-190.836c-0.259-105.244-85.851-190.836-190.836-190.836v0zM491.313 772.267c-67.749 0-122.828-55.079-122.828-122.828s55.079-122.828 122.828-122.828c67.749 0 122.828 55.079 122.828 122.828-0.259 67.749-55.337 122.828-122.828 122.828v0zM589.576 903.37h-7.758v7.24h7.758v-7.24zM582.853 904.404h5.689v5.43h-5.689v-5.43z" />
<glyph unicode="&#xe901;" glyph-name="biology" d="M927.924 431.495c6.837-19.174 25.004-33.031 46.507-33.031 27.316 0 49.546 22.23 49.546 49.546s-22.23 49.546-49.546 49.546c-21.503 0-39.67-13.856-46.507-33.031h-119.489c-2.329 41.982-13.278 81.619-31.313 117.21l71.297 39.753c8.076-5.252 17.391-8.307 26.986-8.307 8.406 0 16.912 2.147 24.691 6.623 11.445 6.606 19.653 17.308 23.072 30.075 3.419 12.783 1.668 26.144-4.955 37.573-6.606 11.478-17.308 19.67-30.091 23.105-12.766 3.435-26.144 1.652-37.573-4.955-20.413-11.809-29.199-36.020-22.461-57.655l-67.416-37.589c-22.477 34.319-51.809 63.683-86.111 86.194l95.343 165.137c2.081-0.264 4.145-0.809 6.226-0.809 17.126 0 33.824 8.885 43.006 24.757 13.658 23.667 5.516 54.022-18.134 67.697-11.445 6.59-24.823 8.406-37.589 4.955-12.783-3.435-23.485-11.627-30.091-23.105-6.606-11.445-8.373-24.79-4.955-37.573 2.164-8.060 6.391-15.128 11.974-21.024l-94.435-163.552c-35.64 18.084-75.36 29.084-117.424 31.412v119.489c19.207 6.837 33.064 25.004 33.064 46.507 0 27.316-22.23 49.546-49.546 49.546s-49.546-22.23-49.546-49.546c0-21.503 13.856-39.67 33.031-46.507v-119.489c-42.065-2.329-81.784-13.311-117.424-31.412l-94.435 163.552c14.6 15.524 18.216 39.257 7.036 58.613-6.606 11.445-17.308 19.653-30.075 23.072-12.849 3.435-26.16 1.652-37.573-4.955-11.478-6.606-19.67-17.308-23.105-30.091-3.419-12.766-1.668-26.127 4.955-37.573 9.15-15.871 25.847-24.757 42.973-24.757 2.081 0 4.162 0.545 6.243 0.809l95.343-165.121c-34.236-22.461-63.518-51.759-85.979-85.979l-103.386 59.687c3.666 20.033-5.153 41.107-23.749 51.858-11.429 6.59-24.773 8.39-37.589 4.938-12.816-3.435-23.485-11.643-30.108-23.089-13.658-23.65-5.533-54.022 18.117-67.697h0.033c7.779-4.476 16.268-6.606 24.657-6.606 11.676 0 22.956 4.41 31.974 12.056l103.568-59.802c-18.084-35.64-29.084-75.36-31.412-117.424h-119.472c-6.837 19.174-25.004 33.031-46.507 33.031-27.316 0-49.546-22.23-49.546-49.546s22.23-49.546 49.546-49.546c21.503 0 39.67 13.856 46.507 33.031h119.489c2.329-42.065 13.311-81.784 31.412-117.424l-154.023-88.919c-4.311 2.791-8.951 5.103-14.055 6.474-12.783 3.435-26.127 1.685-37.589-4.938-23.667-13.675-31.809-44.030-18.15-67.697 9.183-15.871 25.863-24.757 43.006-24.757 8.39 0 16.879 2.13 24.657 6.606h0.033c20.479 11.842 29.249 36.202 22.378 57.87l150.175 86.706c22.51-34.302 51.875-63.634 86.194-86.111l-45.781-82.115c-19.273 2.527-39.125-6.424-49.464-24.278-13.658-23.667-5.516-54.022 18.134-67.697 7.647-4.41 16.119-6.656 24.707-6.656 4.294 0 8.621 0.562 12.882 1.718 12.783 3.435 23.485 11.627 30.091 23.105 6.606 11.445 8.373 24.79 4.955 37.573-2.164 8.060-6.391 15.128-11.974 21.024l45.087 80.876c35.591-18.035 75.228-28.985 117.21-31.313v-119.489c-19.174-6.837-33.031-25.004-33.031-46.507 0-27.316 22.23-49.546 49.546-49.546s49.546 22.23 49.546 49.546c0 21.503-13.856 39.67-33.031 46.507v119.489c42.065 2.329 81.784 13.311 117.424 31.412l59.72-103.436c-13.179-15.508-16.103-38.167-5.368-56.813 9.183-15.855 25.863-24.74 43.006-24.74 8.406 0 16.895 2.13 24.674 6.623 11.462 6.606 19.67 17.292 23.089 30.075 3.435 12.783 1.685 26.127-4.938 37.589-10.752 18.596-31.825 27.416-51.858 23.766l-59.687 103.386c34.236 22.461 63.518 51.759 85.979 85.979l150.175-86.706c-6.87-21.668 1.899-46.028 22.395-57.87 7.828-4.443 16.334-6.59 24.74-6.59 17.126 0 33.824 8.885 43.006 24.757 6.606 11.462 8.373 24.823 4.955 37.589-3.435 12.783-11.627 23.485-23.105 30.091-11.445 6.606-24.79 8.39-37.573 4.955-5.103-1.371-9.728-3.683-14.038-6.474l-154.023 88.935c18.068 35.64 29.051 75.36 31.379 117.424h119.489zM974.431 464.526c9.116 0 16.515-7.399 16.515-16.515s-7.399-16.515-16.515-16.515c-9.116 0-16.515 7.399-16.515 16.515s7.399 16.515 16.515 16.515zM867.081 677.013c2.543 1.486 5.368 2.23 8.225 2.23 1.437 0 2.874-0.198 4.294-0.562 4.277-1.14 7.828-3.881 10.025-7.729 2.213-3.799 2.808-8.258 1.668-12.519s-3.865-7.828-7.696-10.008c-7.894-4.542-18.035-1.85-22.56 6.028-4.575 7.894-1.85 18.018 6.045 22.56zM761.961 918.683v0.033c2.213 3.799 5.764 6.54 10.025 7.696 1.42 0.363 2.857 0.562 4.294 0.562 2.857 0 5.681-0.76 8.225-2.23 7.894-4.542 10.619-14.682 6.045-22.544-4.542-7.911-14.699-10.586-22.56-6.045-3.815 2.197-6.54 5.764-7.696 10.008s-0.545 8.72 1.668 12.519zM256.011 896.139c-7.911-4.575-18.035-1.85-22.56 6.045-2.213 3.815-2.791 8.258-1.668 12.519 1.14 4.277 3.881 7.828 7.729 10.025 2.527 1.486 5.351 2.23 8.208 2.23 1.437 0 2.89-0.198 4.311-0.562 4.261-1.14 7.828-3.865 10.008-7.696 4.558-7.894 1.833-18.018-6.028-22.56zM125.82 670.968c-4.525-7.878-14.649-10.636-22.56-6.045-7.894 4.558-10.603 14.682-6.028 22.577 2.213 3.799 5.764 6.54 10.008 7.68 4.311 1.14 8.704 0.545 12.535-1.652 7.894-4.542 10.603-14.666 6.045-22.56zM49.569 431.495c-9.116 0-16.515 7.399-16.515 16.515s7.399 16.515 16.515 16.515 16.515-7.399 16.515-16.515-7.399-16.515-16.515-16.515zM74.342 169.462c-7.911-4.558-18.035-1.817-22.56 6.045-4.558 7.894-1.833 18.018 6.045 22.56 2.543 1.47 5.368 2.23 8.225 2.23 1.437 0 2.89-0.198 4.311-0.578 4.261-1.123 7.812-3.865 10.008-7.696 4.575-7.894 1.866-18.002-6.028-22.56zM311.586 59.915v-0.033c-2.213-3.799-5.764-6.54-10.025-7.696-4.228-1.107-8.687-0.545-12.519 1.668-7.894 4.542-10.619 14.682-6.045 22.544 3.055 5.301 8.605 8.258 14.319 8.258 2.808 0 5.648-0.71 8.241-2.213 3.815-2.197 6.54-5.764 7.696-10.008s0.545-8.72-1.668-12.519zM734.941 61.831c2.593 1.503 5.434 2.213 8.241 2.213 5.714 0 11.297-2.973 14.335-8.258 2.213-3.815 2.791-8.274 1.652-12.535-1.123-4.261-3.865-7.812-7.696-10.008-7.894-4.542-18.018-1.833-22.56 6.012-4.542 7.911-1.833 18.035 6.028 22.577zM943.63 192.022c2.197 3.815 5.764 6.54 10.008 7.696 1.42 0.363 2.874 0.562 4.311 0.562 2.857 0 5.681-0.743 8.208-2.23h0.033c3.799-2.213 6.54-5.764 7.696-10.025 1.123-4.261 0.545-8.704-1.668-12.519-4.525-7.878-14.682-10.619-22.544-6.045-7.894 4.542-10.619 14.682-6.045 22.56zM512 926.957c9.116 0 16.515-7.399 16.515-16.515s-7.399-16.515-16.515-16.515c-9.116 0-16.515 7.399-16.515 16.515s7.399 16.515 16.515 16.515zM528.515-14.421c0-9.116-7.399-16.515-16.515-16.515s-16.515 7.399-16.515 16.515c0 9.116 7.399 16.515 16.515 16.515s16.515-7.399 16.515-16.515zM512 183.764c-145.699 0-264.246 118.548-264.246 264.246s118.548 264.246 264.246 264.246 264.246-118.548 264.246-264.246-118.548-264.246-264.246-264.246zM644.123 613.164c-36.433 0-66.062-29.629-66.062-66.062s29.629-66.062 66.062-66.062 66.062 29.629 66.062 66.062-29.629 66.062-66.062 66.062zM644.123 514.072c-18.216 0-33.031 14.814-33.031 33.031s14.814 33.031 33.031 33.031c18.216 0 33.031-14.814 33.031-33.031s-14.814-33.031-33.031-33.031zM363.361 464.526c-36.433 0-66.062-29.629-66.062-66.062s29.629-66.062 66.062-66.062 66.062 29.629 66.062 66.062-29.629 66.062-66.062 66.062zM363.361 365.433c-18.216 0-33.031 14.814-33.031 33.031s14.814 33.031 33.031 33.031c18.216 0 33.031-14.814 33.031-33.031s-14.814-33.031-33.031-33.031zM429.423 646.195c-27.316 0-49.546-22.23-49.546-49.546s22.23-49.546 49.546-49.546 49.546 22.23 49.546 49.546-22.23 49.546-49.546 49.546zM429.423 580.133c-9.116 0-16.515 7.399-16.515 16.515s7.399 16.515 16.515 16.515 16.515-7.399 16.515-16.515-7.399-16.515-16.515-16.515zM528.515 315.887c-27.316 0-49.546-22.23-49.546-49.546s22.23-49.546 49.546-49.546c27.316 0 49.546 22.23 49.546 49.546s-22.23 49.546-49.546 49.546zM528.515 249.826c-9.116 0-16.515 7.399-16.515 16.515s7.399 16.515 16.515 16.515c9.116 0 16.515-7.399 16.515-16.515s-7.399-16.515-16.515-16.515zM644.123 398.464c0-27.316 22.23-49.546 49.546-49.546s49.546 22.23 49.546 49.546-22.23 49.546-49.546 49.546-49.546-22.23-49.546-49.546zM710.185 398.464c0-9.116-7.399-16.515-16.515-16.515s-16.515 7.399-16.515 16.515c0 9.116 7.399 16.515 16.515 16.515s16.515-7.399 16.515-16.515z" />
<glyph unicode="&#xe902;" glyph-name="cancel" d="M581.632 443.904l425.984 434.176c16.384 16.384 16.384 49.152 0 65.536s-49.152 16.384-73.728 0l-417.792-425.984-434.176 425.984c-16.384 16.384-49.152 16.384-65.536 0s-16.384-49.152 0-73.728l425.984-425.984-425.984-425.984c-16.384-16.384-16.384-49.152 0-73.728 8.192-8.192 24.576-16.384 32.768-16.384 16.384 0 24.576 8.192 32.768 16.384l425.984 425.984 425.984-425.984c8.192-8.192 24.576-16.384 32.768-16.384 16.384 0 24.576 8.192 32.768 16.384 16.384 16.384 16.384 49.152 0 73.728l-417.792 425.984z" />
<glyph unicode="&#xe903;" glyph-name="cart-icon" d="M1009.6 750.6c-15 21.8-39.8 34.8-66.4 34.8h-500.8c-18.6 0-33.8-15.2-33.8-33.8 0-18.8 15.2-33.8 33.8-33.8h500.8c4.2 0 8.4-2 10.8-5.6s3-8 1.6-12l-93.8-252.6c-1.8-5.2-6.8-8.6-12.2-8.6h-526.4l-83.8 357.6c-10.4 44.4-49.6 75.4-95.2 75.4h-93.4c-28 0-50.8-22.8-50.8-50.8s22.8-50.8 50.8-50.8h90.2l113-481.6c10.2-43.6 48-74 92.6-75.2-26.2-19-43.2-49.6-43.2-84.4 0-57.6 46.8-104.4 104.4-104.4s104.4 46.8 104.4 104.4c0 34.6-17 65-43 84h194.8c-26-19-43-49.4-43-84 0-57.6 46.8-104.4 104.4-104.4s104.4 46.8 104.4 104.4c0 34.6-17 65-43 84h47.2c28 0 50.8 22.8 50.8 50.8s-22.8 50.8-50.8 50.8h-481.8l-13.2 56.2h510.4c33.6 0 64 21.2 75.8 52.6l93.8 252.8c9.2 24.8 5.6 52.6-9.4 74.2z" />
<glyph unicode="&#xe904;" glyph-name="couch-(1)" d="M977 615.4h-775c-4.4 0-8.8 1.8-12 5l-109.4 109.4c-8.8 9-20.8 13.8-33.4 13.8s-24.4-5-33.2-13.8c-9.2-9-14-20.8-14-33.4s4.8-24.4 13.8-33.2l109.4-109.4c21-21 49-32.6 78.6-32.6h38.6v-1c0-26 21.2-47 47-47h13.6l219.6-73.2-219.4-73.2h-13.6c-26 0-47-21.2-47-47v-2.8c-27.6-6.8-48-31.6-48-61.4 0-34.8 28.4-63.2 63.2-63.2s63.2 28.4 63.2 63.2c0 29.6-20.6 54.6-48 61.4v2.8c0 9.4 7.6 17 17 17h16c0 0 0 0 0 0s0 0 0 0h529c0 0 0 0 0 0s0 0 0 0h32c9.4 0 17-7.6 17-17v-2.8c-27.6-6.8-48-31.6-48-61.4 0-34.8 28.4-63.2 63.2-63.2s63.2 28.4 63.2 63.2c0 29.6-20.6 54.6-48 61.4v2.8c0 26-21.2 47-47 47h-29.6l-220.2 73.2 219.4 73.2h29.6c26 0 47 21.2 47 47v1h65.2c26 0 47 21.2 47 47s-21 47.2-46.8 47.2zM288.6 215.6c0-18.2-14.8-33-33-33s-33 14.8-33 33c0 18.2 14.8 33 33 33s33-14.8 33-33zM929.8 215.6c0-18.2-14.8-33-33-33s-33 14.8-33 33c0 18.2 14.8 33 33 33s33-14.8 33-33zM740 326.8h-343.8l172 57.2 171.8-57.2zM568.2 415.8l-172 57.2h343.8l-171.8-57.2zM977 551.2h-128.2c-8.4 0-15-6.8-15-15s6.8-15 15-15h33v-1c0-9.4-7.6-17-17-17h-32.4c0 0 0 0 0 0h-528.4c0 0 0 0 0 0h-16.4c-9.4 0-17 7.6-17 17v1h417.8c8.4 0 15 6.8 15 15s-6.8 15-15 15h-486.4c-21.6 0-42 8.4-57.4 23.8l-109.4 109.4c-3.2 3.2-5 7.4-5 12s1.8 8.8 5 12c3.2 3.2 7.4 5 12 5s8.8-1.8 12-5l109.4-109.4c8.8-8.8 20.8-13.8 33.2-13.8h775c9.4 0 17-7.6 17-17s-7.4-17-16.8-17zM850.2 551.2h-163.2c-42.2 0-76.6-6.8-76.6-15s34.2-15 76.6-15h163.2c42.2 0 76.6 6.8 76.6 15s-34.4 15-76.6 15z" />
<glyph unicode="&#xe905;" glyph-name="cream" d="M1024 916.6c0 11.2-4.6 22-12.8 29.8-7.6 7.4-17.4 12.2-28 13.6-2 0.2-4.2 0.2-6.2 0h-392.2c-2 0.2-4.2 0.2-6.2 0-10.6-1.4-20.4-6.2-28-13.6-8-7.6-12.6-18.2-12.8-29.4-0.2-1.8-0.2-3.4 0-5.2l107.2-801.2v-138.8c0-9.6 3.8-18.6 10.6-25.4s15.8-10.6 25.4-10.6h199.6c19.8 0 35.8 16.2 36 36v138.6l107.4 801c0 1.8 0 3.4 0 5.2zM910.8 929.4h26.6v-28.6h-26.6v28.6zM853 930.6h27v-30l-26.8 0.6v29.4zM795.6 930.6h27v-30l-27 0.4v29.6zM738 930.6h27.4v-30l-27.4 0.6v29.4zM680.4 930.4h27.6v-29.6h-27.6v29.6zM622.8 930.6h27.8v-30h-27.8v30zM567.2 915.8c0 0.4 0 0.8 0 1.4 0.2 3.2 1.6 6.2 4 8.2 3 3 6.8 4.8 10.8 5.4h11v-30h-23.8l-2 15zM729.2-34.2c5.2 17 18.6 30.4 35.8 35.8 28.6 8.8 58.8-7.2 67.6-35.8h-103.4zM886.6-28c0-3.4-2.8-6.2-6.2-6.2h-17.6c-6.4 33.6-32.6 59.6-66.2 66.2-45.4 8.8-89.2-20.8-98-66.2h-17.6c-1.6 0-3.2 0.6-4.4 1.8s-1.8 2.8-1.8 4.4v124.2h212v-124.2zM888.6 126h-215.8l-99.6 744.6 415 1.2-99.6-745.8zM992.6 914.6l-1.8-13.8h-23.8v28.6h10.8c4.2-0.6 8-2.4 10.8-5.4 2.4-2.2 3.8-5 4-8.2 0-0.4 0-0.8 0-1.2zM663.2 549.2c7-7 16.6-11 26.6-11h181.6c10 0 19.4 4 26.4 11s11 16.6 11 26.6v181.6c0 10-4 19.4-11 26.4s-16.6 11-26.6 11h-181.4c-10 0-19.6-4-26.6-11s-11-16.6-11-26.6v-181.6c0-9.8 4-19.4 11-26.4zM682 757.4c0 2 0.8 4 2.2 5.6 1.4 1.4 3.4 2.2 5.6 2.2h181.6c2 0 4-0.8 5.6-2.2 1.4-1.4 2.2-3.4 2.2-5.6v-181.6c0-2-0.8-4-2.2-5.6-1.4-1.4-3.4-2.2-5.6-2.2h-181.6c-2 0-4 0.8-5.6 2.2-1.4 1.4-2.2 3.4-2.2 5.6v181.6zM203.4 694.2v57c0 4.8-2 9.8-5.6 13.2-3.6 3.6-8.2 5.6-13.2 5.6h-128c-4.8-0.2-9.2-2.2-12.6-5.6-3.6-3.6-5.6-8.2-5.6-13.2v-57c-15.2-1.4-26.6-14-26.6-29.2v-580.2c0-7.8 3-15.2 8.6-20.6 5.6-5.6 12.8-8.6 20.6-8.6h159.4c16 0 29.2 13.2 29.2 29.2v580c0 7.8-3 15.2-8.6 20.6-4.4 5-10.8 8.2-17.6 8.8zM62 745.8h117.2v-51.4h-117.2v51.4zM84.6 80l-43.8 0.2c-1.4 0-2.6 0.4-3.6 1.4s-1.4 2.2-1.4 3.6v580c0 2.8 2.2 5 5 5h43.8v-590.2zM205.8 85c0-2.8-2.2-5-5-5h-92v590.2h91.6c1.4 0 2.6-0.4 3.6-1.4s1.4-2.2 1.4-3.6l0.4-580.2z" />
<glyph unicode="&#xe906;" glyph-name="hair-dryer" d="M790.951 646.749c-69.274 29.675-149.488-2.425-179.163-71.7h0.093c-14.326-33.207-14.826-70.755-1.389-104.332 13.433-33.644 39.694-60.565 72.996-74.831 69.274-29.675 149.488 2.425 179.163 71.7s-2.428 149.488-71.7 179.163zM777.509 420.439c-55.631-22.269-118.781 4.775-141.050 60.403-22.269 55.631 4.775 118.781 60.403 141.050 26.803 10.785 56.811 10.385 83.318-1.111 26.321-11.361 47.077-32.677 57.732-59.292 22.271-55.631-4.772-118.781-60.403-141.050zM91.605 727.706l-79.244-9.258c-7.67-0.896-13.162-7.836-12.266-15.506s7.836-13.162 15.506-12.266l79.244 9.258c7.67 0.896 13.162 7.836 12.266 15.506-0.893 7.67-7.836 13.162-15.506 12.266zM110.121 805.839l-73.32 31.476c-7.107 3.041-15.335-0.252-18.376-7.36s0.252-15.335 7.36-18.376l73.32-31.476c7.107-3.041 15.335 0.252 18.376 7.36 3.043 7.107-0.252 15.335-7.36 18.376zM165.666 864.254l-48.139 63.877c-4.626 6.186-13.393 7.45-19.58 2.824s-7.45-13.393-2.824-19.58l48.139-63.877c4.626-6.186 13.393-7.45 19.58-2.824s7.452 13.393 2.824 19.58zM941.816 448.684c38.146 107.464-13.433 226.113-118.033 271.523l-1.296 0.555-0.37-0.093c-103.499 44.251-246.435 75.171-376.874 103.869-50.453 10.924-99.055 21.385-140.992 31.661h-0.555c-15.448 4.066-31.779 3.259-46.75-2.314-14.238-5.469-25.636-16.499-31.568-30.55l-59.433-138.863c-5.969-14.018-5.969-29.862 0-43.881 6.274-14.717 16.944-27.134 30.55-35.549 37.030-24.070 77.948-51.842 120.348-80.726 76.652-52.305 158.581-108.22 236.437-152.286l-75.264-175.245c-24.056-55.959 1.808-120.825 57.767-144.88s120.825 1.808 144.88 57.767l84.429 196.537c70.994 9.251 132.873 52.881 165.432 116.645 68.135-32.124 73.32-71.468 55.545-114.238-13.956-29.251-30.598-57.144-49.713-83.318-59.433-88.224-121.829-180.707-3.148-261.247 5.943-3.342 13.43-1.909 17.719 3.391 4.856 6.001 3.928 14.803-2.074 19.661-95.63 64.803-41.196 145.251 10.739 222.181 20.216 27.833 37.729 57.529 52.305 88.687 23.977 57.582 17.96 109.887-70.079 150.712zM211.305 628.095c-8.707 5.237-15.59 13.028-19.719 22.311-3.050 7.188-3.050 15.307 0 22.496l59.433 138.863c3.023 7.186 8.836 12.836 16.108 15.645 9.586 3.418 19.994 3.807 29.809 1.111h0.555l15.367-3.703-88.132-205.147-13.423 8.424zM655.851 119.857c-18.21-40.208-64.898-58.892-105.82-42.346-42.138 17.038-62.486 65.011-45.447 107.149l74.060 172.653c22.033-12.035 43.788-23.051 64.803-32.309h0.648l1.296-0.555h1.296l4.444-1.944 1.203-0.555c3.455-1.419 6.913-2.777 10.368-4.073l2.592-1.666h1.759c21.519-7.427 44.077-11.396 66.839-11.757l-78.041-184.595zM909.878 446.092c-27.259-63.435-86.974-106.924-155.712-113.405h-1.759l0.741 0.37c-31.047-2.599-62.252 2.555-90.816 14.997h-0.648c-101 43.603-220.607 125.347-329.475 199.407-28.421 19.533-56.563 38.789-83.318 56.563l92.112 214.219c31.753-7.313 64.803-14.442 98.685-21.755 129.142-27.773 270.968-58.415 372.060-101.833 0.181-0.079 0.361-0.155 0.542-0.234 95.521-41.626 139.215-152.807 97.588-248.331z" />
<glyph unicode="&#xe907;" glyph-name="icon-(5)" d="M727.42 960h-430.84c-41.233 0-74.518-33.434-74.518-74.593v-874.889c0-41.121 33.285-74.518 74.518-74.518h430.84c41.159 0 74.518 33.397 74.518 74.518v874.889c0 41.159-33.36 74.593-74.518 74.593zM405.689 914.7h212.696c5.373 0 9.739-8.023 9.739-17.949s-4.366-17.986-9.739-17.986h-212.696c-5.411 0-9.702 8.060-9.702 17.986s4.291 17.949 9.702 17.949zM512.037 9.623c-26.232 0-47.577 21.344-47.577 47.614s21.344 47.539 47.577 47.539c26.158 0 47.502-21.27 47.502-47.539s-21.344-47.614-47.502-47.614zM746.115 172.652h-468.192v661.484h468.192v-661.484z" />
<glyph unicode="&#xe908;" glyph-name="icon_7" d="M1009.6 750.2c-15 21.8-39.8 34.8-66.4 34.8h-500.8c-18.6 0-33.8-15.2-33.8-33.8 0-18.8 15.2-33.8 33.8-33.8h500.8c4.2 0 8.4-2 10.8-5.6s3-8 1.6-12l-93.8-252.6c-1.8-5.2-6.8-8.6-12.2-8.6h-526.4l-83.8 357.6c-10.4 44.4-49.6 75.4-95.2 75.4h-93.4c-28 0-50.8-22.8-50.8-50.8s22.8-50.8 50.8-50.8h90.2l113-481.6c10.2-43.6 48-74 92.6-75.2-26.2-19-43.2-49.6-43.2-84.4 0-57.6 46.8-104.4 104.4-104.4s104.4 46.8 104.4 104.4c0 34.6-17 65-43 84h194.8c-26-19-43-49.4-43-84 0-57.6 46.8-104.4 104.4-104.4s104.4 46.8 104.4 104.4c0 34.6-17 65-43 84h47.2c28 0 50.8 22.8 50.8 50.8s-22.8 50.8-50.8 50.8h-481.8l-13.2 56.2h510.4c33.6 0 64 21.2 75.8 52.6l93.8 252.8c9.2 24.8 5.6 52.6-9.4 74.2z" />
<glyph unicode="&#xe909;" glyph-name="login" d="M648.17 823.83c-71.353 0-140.8-20.153-200.715-58.009-58.281-37.038-105.396-89.055-136.17-150.877l58.553-29.14c53.106 106.485 159.591 172.664 278.332 172.664 171.302 0 310.468-139.166 310.468-310.468s-139.166-310.468-310.468-310.468c-118.74 0-225.226 66.179-278.060 172.391l-58.553-29.14c30.774-61.821 77.617-113.838 136.17-150.877 59.915-37.855 129.362-58.009 200.715-58.009 207.251 0 375.83 168.579 375.83 375.83s-168.851 376.102-376.102 376.102v0zM494.298 340.426l46.298-46.298 153.872 153.872-153.872 153.872-46.298-46.298 74.894-74.894h-569.191v-65.362h569.191l-74.894-74.894z" />
<glyph unicode="&#xe90a;" glyph-name="manicure-scissors" d="M984.242 146.587c-19.563 73.014-85.962 124.007-161.471 124.007-14.585 0-29.181-1.929-43.383-5.735-46.804-12.541-83.64-43.875-104.621-83.7l-98.138 366.254 24.377 90.978c59.659 222.646 38.519 296.888 35.911 304.62-2.958 8.775-11.037 14.806-20.293 15.14-9.164 0.347-17.75-5.089-21.34-13.625l-83.283-198.126-84.056 199.961c-3.617 8.603-12.207 14.019-21.538 13.619-9.322-0.423-17.396-6.612-20.22-15.507-2.51-7.904-22.798-83.635 36.802-306.081l24.377-90.978-33.346-124.448c0 0 0-0.004-0.002-0.004l-64.79-241.799c-20.983 39.822-57.817 71.157-104.621 83.698-14.202 3.806-28.798 5.735-43.381 5.735-75.509 0-141.909-50.993-161.471-124.007-23.87-89.085 29.186-180.982 118.271-204.852 14.2-3.804 28.796-5.735 43.381-5.735 0.004 0 0.004 0 0.009 0 75.5 0 141.9 50.993 161.464 124.007 0.007 0.022 0.011 0.047 0.018 0.069l90.951 339.431 58.151 17.783 58.149-17.783 90.969-339.5c19.565-73.014 85.965-124.007 161.471-124.007 14.585 0 29.181 1.929 43.383 5.735 89.080 23.87 142.138 115.767 118.268 204.852zM319.878 71.615l-0.022-0.080c-0.002-0.009-0.004-0.020-0.007-0.029-14.367-53.563-63.066-90.969-118.44-90.967-10.694 0-21.411 1.419-31.856 4.216-65.362 17.514-104.287 84.938-86.775 150.302 14.353 53.577 63.062 90.993 118.446 90.993 10.692 0 21.409-1.419 31.856-4.218 65.338-17.503 104.258-84.88 86.798-150.218zM467.445 450.245l2.98 11.124 2.53-9.438-5.51-1.686zM518.574 461.859c-0.042 0.013-0.085 0.027-0.129 0.040l-2.232 0.684-50.198 187.338c-20.362 75.992-30.883 133.775-36.014 176.606l70.963-168.814 55.59-207.469-37.98 11.614zM557.984 649.921l-4.41-16.46-9.979 37.248c-0.261 0.978-0.59 1.933-0.98 2.866l-6.454 15.356 57.625 137.089c-5.009-42.515-15.431-100.073-35.802-176.098zM854.445-15.243c-10.445-2.797-21.162-4.216-31.856-4.216-55.383 0-104.089 37.417-118.446 90.989 0 0.002 0 0.002 0 0.004l-0.002 0.009c-17.505 65.36 21.42 132.778 86.778 150.291 10.445 2.797 21.164 4.218 31.856 4.218 55.385 0 104.093-37.417 118.446-90.993 17.511-65.362-21.415-132.787-86.775-150.302z" />
<glyph unicode="&#xe90b;" glyph-name="money" d="M273.067 488.96c-18.204 0-34.133-6.827-34.133-6.827l-2.276-22.756c0 0 11.378 4.551 29.582 4.551 11.378 0 18.204-2.276 18.204-9.102 0-4.551 0-6.827 0-6.827s-9.102 0-11.378 0c-25.031 0-50.062-11.378-50.062-40.96 0-25.031 15.929-29.582 27.307-29.582 20.48 0 29.582 13.653 29.582 13.653v-11.378h25.031l11.378 77.369c-4.551 31.858-31.858 31.858-43.236 31.858v0zM259.413 400.213c-9.102 0-11.378 6.827-11.378 11.378 0 6.827 4.551 15.929 25.031 15.929 4.551 0 4.551 0 6.827 0 0-6.827-2.276-27.307-20.48-27.307v0zM348.16 454.827c0-13.653 34.133-6.827 34.133-40.96 0-36.409-36.409-36.409-43.236-36.409-22.756 0-31.858 2.276-31.858 4.551l4.551 25.031c0 0 11.378-4.551 25.031-4.551 6.827 0 18.204 0 18.204 9.102 0 13.653-34.133 11.378-34.133 43.236 0 29.582 20.48 36.409 40.96 36.409 15.929 0 25.031-2.276 25.031-2.276l-4.551-25.031c0 0-15.929 2.276-18.204 2.276-11.378-2.276-15.929-4.551-15.929-11.378v0zM414.151 411.591c0-4.551 0-9.102 9.102-9.102 2.276 0 4.551 0 6.827 0l-4.551-25.031c-2.276 0-11.378-4.551-20.48-4.551-13.653 0-22.756 6.827-22.756 22.756 0 11.378 15.929 102.4 15.929 104.676h27.307l-2.276-15.929h13.653v-25.031h-15.929l-6.827-47.787zM523.378 422.969c0 0 4.551 18.204 4.551 25.031 0 18.204-9.102 40.96-40.96 40.96-27.307 0-50.062-29.582-50.062-65.991 0-38.684 27.307-50.062 47.787-50.062s29.582 4.551 29.582 4.551l4.551 27.307c0 0-15.929-6.827-29.582-6.827-29.582 0-25.031 22.756-25.031 22.756h59.164zM486.969 463.929c15.929 0 13.653-18.204 13.653-18.204h-31.858c0 0 2.276 18.204 18.204 18.204v0zM232.107 511.716l-22.756-134.258h-27.307l15.929 100.124-36.409-100.124h-20.48l-2.276 100.124-18.204-100.124h-25.031l22.756 134.258h40.96v-81.92l27.307 81.92h45.511zM587.093 529.92h-145.636c2.276 2.276 6.827 13.653 13.653 27.307h120.604c4.551-9.102 9.102-18.204 11.378-27.307v0zM559.787 584.533h-88.747c6.827 9.102 11.378 18.204 18.204 27.307h50.062c9.102-6.827 15.929-15.929 20.48-27.307v0zM514.276 250.027c-9.102 9.102-18.204 18.204-27.307 29.582h54.613c-9.102-11.378-18.204-20.48-27.307-29.582v0c0 0 0 0 0 0s0 0 0 0v0zM562.062 304.64h-93.298c-6.827 9.102-11.378 18.204-15.929 27.307h125.156c-6.827-9.102-11.378-18.204-15.929-27.307v0zM593.92 486.684c-4.551-6.827-6.827-13.653-11.378-31.858-20.48 6.827-20.48-31.858-29.582-77.369h-29.582l18.204 109.227h27.307l-2.276-15.929c0 0 9.102 18.204 22.756 18.204 2.276-2.276 4.551-2.276 4.551-2.276v0zM646.258 402.489c9.102 0 22.756 6.827 22.756 6.827l-4.551-29.582c0 0-15.929-4.551-25.031-4.551-34.133 0-50.062 22.756-50.062 59.164 0 52.338 31.858 81.92 63.716 81.92 13.653 0 31.858-6.827 31.858-6.827l-4.551-29.582c0 0-11.378 9.102-25.031 9.102-18.204 0-36.409-18.204-36.409-52.338 0-18.204 6.827-34.133 27.307-34.133v0zM921.6 393.387c-2.276 0-2.276-2.276-2.276-2.276 0-2.276 0-2.276 0-4.551s0-2.276 0-4.551 2.276-2.276 2.276-2.276 2.276-2.276 4.551-2.276c2.276 0 2.276 0 4.551 2.276 2.276 0 2.276 2.276 2.276 2.276 0 2.276 2.276 2.276 2.276 4.551s0 2.276-2.276 4.551c0 2.276-2.276 2.276-2.276 2.276-2.276 0-2.276 0-4.551 0s-4.551 0-4.551 0v0zM930.702 388.836c0 0 0-2.276 0-4.551s0-2.276 0-4.551-2.276-2.276-2.276-2.276-2.276 0-4.551 0-2.276 0-4.551 0c0 0-2.276 2.276-2.276 2.276 0 2.276 0 2.276 0 4.551s0 2.276 0 4.551 2.276 2.276 2.276 2.276 2.276 0 4.551 0 2.276 0 4.551 0c0 0 2.276 0 2.276-2.276v0zM816.924 420.693c0-22.756 11.378-45.511 34.133-45.511 15.929 0 25.031 11.378 25.031 11.378l-2.276-9.102h27.307l20.48 134.258h-27.307l-6.827-38.684c0 0-11.378 13.653-27.307 13.653-22.756 2.276-43.236-29.582-43.236-65.991v0zM885.191 438.898c0-15.929-6.827-34.133-22.756-34.133-9.102 0-15.929 9.102-15.929 22.756 0 22.756 9.102 36.409 22.756 36.409 9.102-2.276 15.929-9.102 15.929-25.031v0zM930.702 297.813c0 0-2.276 0 0 0 0 0 0 0 0 0 2.276 2.276 2.276 2.276 2.276 2.276s0 0 0 2.276c0 0 0 0-2.276 0 0 0-2.276 0-2.276 0h-2.276v-9.102h2.276v4.551c0 0 0 0 2.276 0-2.276 0-2.276-2.276 0 0v-4.551h2.276l-2.276 4.551c0-2.276 0 0 0 0v0zM928.427 297.813v0l-2.276 2.276h2.276c0 0 2.276 0 2.276 0 0 2.276 0 0-2.276-2.276 2.276 2.276 2.276 2.276 0 0 2.276 2.276 2.276 2.276 0 0 0 0 0 0 0 0v0zM1001.244 777.956h-973.938c-15.929 0-27.307-11.378-27.307-27.307v-614.4c0-13.653 11.378-27.307 27.307-27.307h973.938c13.653 0 27.307 11.378 27.307 27.307v614.4c0 15.929-11.378 27.307-27.307 27.307v0zM935.253 293.262c0-2.276-2.276-2.276-2.276-2.276-2.276 0-2.276-2.276-4.551-2.276s-2.276 0-4.551 2.276c-2.276 0-2.276 2.276-2.276 2.276 0 2.276-2.276 2.276-2.276 4.551s0 2.276 2.276 4.551c0 2.276 2.276 2.276 2.276 2.276 2.276 0 2.276 2.276 4.551 2.276s2.276 0 4.551-2.276c2.276 0 2.276-2.276 2.276-2.276 0-2.276 2.276-2.276 2.276-4.551 0 0 0-2.276-2.276-4.551v0zM955.733 445.724c0-145.636-118.329-263.964-263.964-263.964-68.267 0-129.707 25.031-177.493 68.267-47.787-43.236-109.227-68.267-177.493-68.267-145.636 0-263.964 118.329-263.964 263.964 0 143.36 118.329 261.689 261.689 263.964h2.276c68.267 0 129.707-25.031 177.493-68.267 47.787 43.236 109.227 68.267 177.493 68.267 145.636 0 263.964-118.329 263.964-263.964v0 0zM921.6 391.111v-9.102h2.276v4.551c0 0 0 0 2.276 0 0 0 0 0 2.276-2.276v-2.276h2.276l-2.276 2.276c0 0 0 2.276-2.276 2.276 0 0 0 0 0 0s2.276 0 2.276 0c0 0 0 0 0 2.276 0 0 0 0 0 2.276 0 0 0 0 0 0s-2.276 0-2.276 0h-4.551zM926.151 388.836c0 0 0 0 0 0 0-2.276 0-2.276 0 0 0-2.276 0-2.276 0 0l-4.551-2.276v2.276h4.551c0 0 0 0 0 0s0 0 0 0v0zM730.453 488.96c-18.204 0-34.133-6.827-34.133-6.827l-4.551-22.756c0 0 11.378 4.551 29.582 4.551 11.378 0 18.204-2.276 18.204-9.102 0-4.551 0-6.827 0-6.827s-9.102 0-11.378 0c-25.031 0-50.062-11.378-50.062-40.96 0-25.031 15.929-29.582 27.307-29.582 20.48 0 27.307 13.653 29.582 13.653v-11.378h25.031l11.378 77.369c-2.276 31.858-31.858 31.858-40.96 31.858v0zM714.524 400.213c-9.102 0-11.378 6.827-11.378 11.378 0 6.827 4.551 15.929 25.031 15.929 4.551 0 4.551 0 6.827 0 0-6.827-2.276-27.307-20.48-27.307v0zM819.2 454.827c-20.48 6.827-20.48-31.858-29.582-77.369h-29.582l18.204 109.227h27.307l-2.276-15.929c0 0 9.102 18.204 22.756 18.204 4.551 0 4.551 0 4.551 0-4.551-9.102-6.827-15.929-11.378-34.133v0z" />
<glyph unicode="&#xe90c;" glyph-name="phone-icon" horiz-adv-x="580" d="M505.4 960h-430.8c-41.4 0-74.6-33.4-74.6-74.6v-874.8c0-41.2 33.2-74.6 74.6-74.6h430.8c41.2 0 74.6 33.4 74.6 74.6v874.8c-0.2 41.2-33.4 74.6-74.6 74.6zM183.6 914.6h212.6c5.4 0 9.8-8 9.8-18s-4.4-18-9.8-18h-212.6c-5.4 0-9.8 8-9.8 18 0.2 10 4.4 18 9.8 18zM290 9.6c-26.2 0-47.6 21.4-47.6 47.6s21.4 47.6 47.6 47.6c26.2 0 47.6-21.2 47.6-47.6s-21.4-47.6-47.6-47.6zM524 172.6h-468.2v661.6h468.2v-661.6z" />
<glyph unicode="&#xe90d;" glyph-name="search-icon" d="M1011.461 8.882l-249.208 249.208c60.865 74.188 97.176 168.751 97.176 272.196 0 237.192-192.261 429.714-429.453 429.714-237.453 0-429.976-192.522-429.976-429.976s192.522-429.976 429.976-429.976c103.184 0 198.008 36.31 272.196 97.176l248.947-248.947c16.718-16.718 43.624-16.718 60.343 0 16.718 16.98 16.718 43.886 0 60.604v0zM85.159 530.024c0 190.171 154.122 344.294 344.294 344.294s344.294-154.122 344.294-344.294c0-190.171-154.122-344.294-344.294-344.294-189.91 0-344.294 154.122-344.294 344.294v0z" />
<glyph unicode="&#xe90e;" glyph-name="sign" d="M980.929 757.482h-937.003c-24.245 0-43.926-19.681-43.926-43.926v-531.396c0-24.245 19.681-43.926 43.926-43.926h937.003c24.245 0 43.926 19.681 43.926 43.926v531.396c0 24.245-19.681 43.926-43.926 43.926v0zM952.406 210.683h-879.955v474.349h879.955v-474.349zM662.89 338.184c1.141-1.997 3.423-3.138 5.705-3.138h49.061c2.852 0 5.419 1.711 6.275 4.564 5.99 15.973 9.983 25.957 11.124 29.379 3.138 0 18.255 0 34.514 0h0.856c18.54 0 38.222 0 43.071 0 1.426-5.99 4.849-21.678 6.275-28.238 0.57-3.138 3.423-5.419 6.56-5.419h42.786c1.997 0 3.993 0.856 5.419 2.567s1.711 3.708 1.426 5.705l-46.494 211.075c-0.57 3.138-3.423 5.419-6.56 5.419h-41.93c-16.829 0-26.242-5.705-32.232-18.54l-86.712-196.528c-0.856-2.282-0.57-4.849 0.856-6.846v0zM785.542 499.343l4.279-19.396 14.262-65.034h-51.057l32.517 84.43zM496.027 345.6c16.258-5.705 38.792-9.128 60.47-9.413v0c62.182 0 102.4 29.094 102.97 74.162 0.285 24.816-15.403 43.356-49.346 58.759-20.822 9.983-33.373 16.829-33.373 27.097 0 9.128 11.695 18.54 33.943 18.54 0.57 0 1.141 0 1.711 0 18.54 0 31.661-4.279 39.933-7.416 1.997-0.856 3.993-0.57 5.705 0.57s3.138 2.852 3.423 4.849l5.419 32.517c0.57 3.423-1.426 6.56-4.564 7.701-10.269 3.138-26.527 7.131-47.349 7.131-58.474 0-99.548-29.379-99.833-71.594-0.285-31.091 29.379-48.49 51.913-59.044 23.104-10.554 30.806-17.399 30.52-26.812-0.285-14.547-18.54-21.108-35.369-21.108-23.96 0-37.081 3.708-55.336 11.124-1.997 0.856-3.993 0.57-5.99-0.285-1.711-1.141-3.138-2.852-3.423-4.849l-5.99-34.228c-0.57-3.423 1.426-6.56 4.564-7.701v0zM153.172 547.262c39.077-13.977 71.309-36.51 92.702-64.749 1.426-1.711 3.423-2.567 5.419-2.567 0.856 0 1.997 0.285 2.852 0.57 2.852 1.426 4.564 4.564 3.993 7.701l-11.409 53.91c0 0 0 0.285 0 0.285-3.993 15.403-17.114 17.685-26.527 17.97 0 0-0.285 0-0.285 0h-64.178c-3.423 0-6.275-2.282-6.846-5.705-0.856-3.138 1.141-6.275 4.279-7.416v0zM390.489 337.613c1.426-1.426 3.138-2.567 5.134-2.567h47.349c3.423 0 6.275 2.282 6.846 5.705l35.94 211.075c0.285 1.997-0.285 3.993-1.426 5.705s-3.138 2.567-5.134 2.567h-47.349c-3.423 0-6.275-2.282-6.846-5.705l-35.94-211.075c-0.285-1.997 0.285-3.993 1.426-5.705v0zM201.092 511.608c-2.282 1.711-5.705 1.997-7.987 0.285-2.567-1.711-3.423-4.849-2.567-7.701l47.92-163.726c0.856-2.852 3.423-4.849 6.56-4.849v0h55.336c2.852 0 5.134 1.711 6.275 4.279l90.705 210.79c0.856 1.997 0.57 4.564-0.57 6.56s-3.423 3.138-5.705 3.138v0h-49.916c-2.852 0-5.419-1.711-6.275-4.279l-58.474-149.464-6.275 22.819c0 0.285-0.285 0.57-0.285 0.856-9.413 21.108-34.228 54.765-68.742 81.292v0z" />
<glyph unicode="&#xe90f;" glyph-name="social" d="M513.29 960c-283.728 0-513.29-229.562-513.29-513.29s229.562-513.29 513.29-513.29c283.728 0 513.29 229.562 513.29 513.29-2.579 283.728-232.141 513.29-513.29 513.29v0zM639.678 428.655h-82.539v-296.625h-123.809v296.625h-59.325v105.753h59.325v67.063c0 49.008 23.214 123.809 123.809 123.809h90.277v-103.174h-67.063c-10.317 0-25.793-5.159-25.793-28.373v-61.904h92.856l-7.738-103.174z" />
<glyph unicode="&#xe910;" glyph-name="Vector-Smart-Object" d="M513.29 960c-283.728 0-513.29-229.562-513.29-513.29s229.562-513.29 513.29-513.29c283.728 0 513.29 229.562 513.29 513.29-2.579 283.728-232.141 513.29-513.29 513.29v0zM371.426 222.307v446.227l392.060-224.403-392.060-221.824z" />
<glyph unicode="&#xe911;" glyph-name="Vector-Smart-Object1" d="M513.29 960c-283.728 0-513.29-229.562-513.29-513.29s229.562-513.29 513.29-513.29c283.728 0 513.29 229.562 513.29 513.29-2.579 283.728-232.141 513.29-513.29 513.29v0zM250.196 444.131c0 147.023 118.65 265.673 265.673 265.673 59.325 0 116.071-18.055 162.499-54.166l-61.904-79.96c-28.373 23.214-64.484 33.531-100.594 33.531-90.277 0-165.078-74.801-165.078-165.078s74.801-165.078 165.078-165.078c72.222 0 134.126 49.008 157.34 113.491h-157.34v103.174h265.673v-51.587c0-147.023-118.65-265.673-265.673-265.673s-265.673 118.65-265.673 265.673v0z" />
<glyph unicode="&#xe912;" glyph-name="ic-1" horiz-adv-x="1049" d="M523.237-64c-14.749 0-129.931 1.405-245.465 46.003-151.001 57.942-241.602 164.346-262.672 308.324-23.528 160.483-19.665 289.712 12.291 395.062 29.147 96.922 76.905 155.918 115.534 196.302 75.501 80.066 241.602 79.012 351.868 78.31 10.535 0 20.368 0 29.849 0 10.535 0 21.421 0 32.658 0 121.855 0.702 273.207 1.756 349.059-77.959 38.277-40.384 86.387-99.38 115.534-196.302 31.605-105.35 35.819-234.579 12.291-395.062v0c-21.070-143.978-111.671-250.733-262.672-308.324-115.885-44.247-230.716-46.003-245.465-46.003 0 0-0.351 0-0.351 0h-1.756c-0.351-0.351-0.702-0.351-0.702-0.351zM523.588-39.418h1.756c12.291 0 124.313 1.053 237.388 44.247 143.978 55.133 227.204 152.406 247.221 289.010 22.826 156.62 18.963 282.337-11.588 384.176-27.742 92.357-73.394 148.543-109.915 186.82-68.126 71.989-220.181 71.287-330.798 70.584-11.237 0-22.475 0-33.010 0-9.481 0-19.665 0-30.2 0-105.701 0.702-265.481 1.756-333.959-70.233-36.521-38.628-81.822-94.815-109.564-186.82-30.551-101.838-34.414-227.556-11.588-384.176 20.016-136.604 102.892-233.877 247.221-289.010 112.724-43.545 224.746-44.598 237.037-44.598zM524.642 54.694l-14.047 0.702c-161.185 7.374-335.012 28.796-399.978 132.741-62.508 99.731-54.080 424.209-1.405 560.812 48.812 126.42 353.624 122.557 415.429 120.45 61.805 2.107 366.617 5.97 415.429-120.45 52.675-136.252 60.752-460.73-1.756-560.812v0c-64.966-103.945-238.793-125.366-399.978-132.741l-13.695-0.702zM484.96 845.169c-131.336 0-320.966-21.772-353.273-105.35-49.514-128.878-58.645-445.981-0.351-539.040 59.347-94.815 234.228-114.831 379.962-121.503l12.993-0.702 12.993 0.702c277.421 12.642 348.708 71.638 379.962 121.503v0c26.337 42.14 41.438 138.008 40.033 256.351-1.405 111.32-17.207 221.937-40.384 282.689-35.468 92.005-263.374 109.213-392.252 104.647h-0.702c-11.94 0.351-24.933 0.702-38.979 0.702zM524.642 101.399l-12.291 0.702c-142.573 6.672-296.033 25.635-353.624 117.992-55.133 88.494-48.11 375.396-1.756 495.846 43.193 112.373 312.889 108.861 367.671 107.106 54.782 1.756 324.477 5.267 367.671-107.106 46.354-120.45 53.728-407.353-1.756-495.846-57.591-92.357-211.051-111.32-353.624-117.992l-12.291-0.702zM489.525 798.464c-115.182 0-281.635-18.963-310.080-92.005-20.368-53.026-34.414-150.65-35.468-248.626-1.053-103.945 11.94-188.225 35.117-225.449 51.973-83.226 205.783-100.433 333.959-106.403l11.237-0.351 11.237 0.351c244.060 11.237 306.568 62.508 333.959 106.403v0c23.177 36.872 36.17 121.152 35.117 225.449-1.053 97.975-15.1 195.599-35.468 248.626-30.903 80.417-231.067 95.166-344.494 91.303h-0.702c-10.535 0.351-22.123 0.702-34.414 0.702zM524.642 499.27c-66.019 0-119.748 53.728-119.748 119.748s53.728 119.748 119.748 119.748 119.748-53.728 119.748-119.748-53.728-119.748-119.748-119.748zM524.642 713.833c-52.324 0-95.166-42.842-95.166-95.166s42.842-95.166 95.166-95.166 95.166 42.842 95.166 95.166-42.842 95.166-95.166 95.166zM564.675 361.262c0-22.11-17.923-40.033-40.033-40.033s-40.033 17.923-40.033 40.033c0 22.11 17.923 40.033 40.033 40.033s40.033-17.923 40.033-40.033zM720.593 136.516c0 0-95.517-21.421-195.951-20.719-100.433-0.351-195.951 20.719-195.951 20.719 84.982 72.34 173.827 69.882 195.951 69.882 21.772 0 110.968 2.107 195.951-69.882z" />
<glyph unicode="&#xe913;" glyph-name="Vector-Smart-Object3" horiz-adv-x="1183" d="M14.222 898.37c9.481 9.481 18.963 14.222 30.815 14.222h182.519c7.111 0 14.222-2.37 21.333-4.741 4.741-2.37 9.481-7.111 14.222-11.852 2.37-4.741 7.111-9.481 9.481-16.593s4.741-14.222 4.741-18.963c0-4.741 2.37-11.852 4.741-21.333s2.37-14.222 2.37-18.963h853.333c11.852 0 23.704-4.741 30.815-14.222 9.481-9.481 14.222-18.963 14.222-30.815v-362.667c0-11.852-4.741-21.333-11.852-30.815s-16.593-14.222-28.444-14.222l-741.926-87.704c0-2.37 2.37-9.481 2.37-14.222 2.37-7.111 2.37-14.222 4.741-18.963s2.37-11.852 2.37-16.593c0-7.111-4.741-23.704-16.593-45.037h654.222c11.852 0 23.704-4.741 30.815-14.222 9.481-9.481 14.222-18.963 14.222-30.815s-4.741-23.704-14.222-30.815c-4.741-4.741-11.852-9.481-18.963-11.852 2.37-2.37 4.741-2.37 4.741-4.741 16.593-16.593 26.074-40.296 26.074-64 0-26.074-9.481-47.407-26.074-64s-40.296-26.074-64-26.074c-26.074 0-47.407 9.481-64 26.074s-26.074 40.296-26.074 64c0 26.074 9.481 47.407 26.074 64 0 0 2.37 2.37 2.37 2.37h-512c0 0 2.37-2.37 2.37-2.37 16.593-16.593 26.074-40.296 26.074-64 0-26.074-9.481-47.407-26.074-64s-40.296-26.074-64-26.074c-26.074 0-47.407 9.481-64 26.074s-26.074 40.296-26.074 64c0 26.074 9.481 47.407 26.074 64 2.37 2.37 4.741 2.37 4.741 4.741-7.111 2.37-14.222 4.741-18.963 11.852-9.481 9.481-14.222 18.963-14.222 30.815 0 7.111 2.37 16.593 7.111 28.444s11.852 26.074 21.333 42.667c9.481 16.593 14.222 26.074 14.222 26.074l-125.63 583.111h-144.593c-11.852 0-23.704 4.741-30.815 14.222-9.481 9.481-14.222 18.963-14.222 30.815s4.741 23.704 14.222 33.185zM973.337 660.837l-349.831 63.609 42.83 235.553 349.831-63.609-42.83-235.553zM695.197 758.462l-231.538-50.726-33.986 155.13 231.538 50.726 33.986-155.13z" />
<glyph unicode="&#xe914;" glyph-name="arrow" horiz-adv-x="1843" d="M1781.76 673.28l-716.8-675.84c-40.96-40.96-102.4-61.44-143.36-61.44-61.44 0-102.4 20.48-143.36 61.44l-716.8 675.84c-81.92 61.44-81.92 184.32 0 245.76s184.32 61.44 266.24 0l593.92-573.44 593.92 552.96c81.92 61.44 184.32 61.44 266.24 0s81.92-163.84 0-225.28z" />
<glyph unicode="&#xe915;" glyph-name="star" horiz-adv-x="1045" d="M517.278 136.577l263.918-190.021c21.113-21.113 52.784-10.557 73.897 10.557 0 0 0 0 0 0 10.557 21.113 10.557 31.67 10.557 52.784l-105.567 306.144 253.361 179.464c21.113 21.113 31.67 52.784 10.557 73.897 0 10.557-21.113 21.113-31.67 21.113h-316.701l-105.567 316.701c0 31.67-31.67 52.784-52.784 52.784s-52.784-21.113-52.784-52.784l-105.567-316.701h-306.144c-31.67 0-52.784-21.113-52.784-52.784 0-21.113 10.557-31.67 21.113-42.227l253.361-179.464-95.010-306.144c-10.557-31.67 0-63.34 31.67-73.897 21.113-10.557 31.67 0 52.784 10.557l253.361 190.021z" />
<glyph unicode="&#xe9bd;" glyph-name="menu" d="M64 768h896v-192h-896zM64 512h896v-192h-896zM64 256h896v-192h-896z" />
<glyph unicode="" glyph-name="menu" d="M64 768h896v-192h-896zM64 512h896v-192h-896zM64 256h896v-192h-896z" />
<glyph unicode="menu" glyph-name="menu" d="M64 768h896v-192h-896zM64 512h896v-192h-896zM64 256h896v-192h-896z" />
<glyph unicode="list3" glyph-name="menu" d="M64 768h896v-192h-896zM64 512h896v-192h-896zM64 256h896v-192h-896z" />
</font>
</defs>
</svg>
